<?xml version="1.0" encoding="UTF-8"?>
<svg version="1.1" xmlns="http://www.w3.org/2000/svg" width="480" height="480">
<path d="M0 0 C158.4 0 316.8 0 480 0 C480 158.4 480 316.8 480 480 C321.6 480 163.2 480 0 480 C0 321.6 0 163.2 0 0 Z " fill="#FEFEFE" transform="translate(0,0)"/>
<path d="M0 0 C2.02072758 -0.00217023 4.04089312 -0.02033243 6.06152344 -0.03930664 C32.55944415 -0.07819791 61.86102365 7.28731604 81.20214844 26.37280273 C99.41981923 45.21866907 106.41129704 69.52811077 106.32495117 95.36694336 C106.3306695 96.93561281 106.33763934 98.5042781 106.3457489 100.07293701 C106.36351982 104.28731373 106.36254437 108.50148049 106.35680652 112.71588326 C106.35369569 116.24520128 106.35982698 119.77448007 106.36584526 123.30379248 C106.37983169 131.62630898 106.37837435 139.94872265 106.36694336 148.27124023 C106.35542672 156.84548444 106.36961043 165.41941715 106.39633983 173.9936204 C106.41849261 181.37739714 106.42513639 188.76107602 106.41926342 196.14488363 C106.4158966 200.54582805 106.4182925 204.9465721 106.43551445 209.3474884 C106.45097829 213.47799735 106.44703469 217.60804243 106.4282093 221.73853302 C106.42452398 223.25182761 106.42763032 224.7651566 106.43809509 226.27841949 C106.45130973 228.34740155 106.43975714 230.41484807 106.42210388 232.48376465 C106.4218946 233.63994545 106.42168531 234.79612625 106.42146969 235.98734283 C105.33740119 242.91304537 100.28093839 247.201915 94.92089844 251.18530273 C65.60943007 270.85453696 25.35764807 278.52879564 -9.26660156 278.62280273 C-10.35859863 278.63179092 -10.35859863 278.63179092 -11.47265625 278.64096069 C-21.7197395 278.69724904 -31.1010406 277.55610827 -41.07910156 275.18530273 C-41.72339615 275.03584198 -42.36769073 274.88638123 -43.0315094 274.73239136 C-57.89415832 271.28002969 -71.22767426 265.98624499 -83.07910156 256.18530273 C-83.89121094 255.52401367 -84.70332031 254.86272461 -85.54003906 254.18139648 C-90.49334066 249.97684978 -94.52116837 245.61733443 -98.07910156 240.18530273 C-98.92601562 238.91106445 -98.92601562 238.91106445 -99.79003906 237.61108398 C-107.37726082 225.46821598 -111.99219495 212.55965581 -112.07910156 198.18530273 C-112.11648437 197.00581055 -112.15386719 195.82631836 -112.19238281 194.61108398 C-112.65129397 171.49645379 -107.29360998 151.68126591 -90.95410156 134.56030273 C-82.80524647 126.73605863 -73.71616339 120.17218327 -63.07910156 116.18530273 C-61.81447791 115.68736793 -60.55018544 115.18859161 -59.28613281 114.68920898 C-45.44864031 109.28663285 -45.44864031 109.28663285 -38.07910156 108.18530273 C-36.98984375 108.00225586 -35.90058594 107.81920898 -34.77832031 107.63061523 C-13.68793348 104.58492139 8.0211787 105.13959093 28.92089844 109.18530273 C29.97374023 109.38881348 31.02658203 109.59232422 32.11132812 109.80200195 C51.94308116 113.69639409 51.94308116 113.69639409 54.92089844 115.18530273 C55.42348037 87.14012151 55.42348037 87.14012151 42.92871094 63.12280273 C28.6610765 50.20117155 8.94426279 49.11069792 -9.50585938 50.0144043 C-19.0787353 50.42532776 -19.0787353 50.42532776 -28.07910156 53.18530273 C-29.99335938 53.33805664 -29.99335938 53.33805664 -31.94628906 53.49389648 C-38.01894717 54.11377829 -43.47659685 56.23202824 -49.20410156 58.24780273 C-59.8891465 61.82330046 -70.66435114 65.27175021 -81.64160156 60.62280273 C-86.65952303 57.55082903 -90.95293422 52.68832408 -93.07910156 47.18530273 C-93.88357923 39.83491732 -94.48794987 32.06233608 -89.75097656 25.95483398 C-89.19925781 25.37088867 -88.64753906 24.78694336 -88.07910156 24.18530273 C-87.42425781 23.48791992 -86.76941406 22.79053711 -86.09472656 22.07202148 C-80.90889056 17.04249614 -75.92724467 14.31305477 -69.07910156 12.18530273 C-68.44907227 11.98839844 -67.81904297 11.79149414 -67.16992188 11.58862305 C-62.16256136 10.03688123 -57.12873004 8.59251538 -52.07910156 7.18530273 C-51.05816406 6.89526367 -50.03722656 6.60522461 -48.98535156 6.30639648 C-40.53854392 4.04046915 -31.91567496 2.74042822 -23.26806641 1.5 C-21.32496095 1.22064879 -19.38529927 0.91757269 -17.44628906 0.61108398 C-11.65850817 -0.08942124 -5.82162755 -0.0006967 0 0 Z " fill="#794590" transform="translate(243.0791015625,100.814697265625)"/>
<path d="M0 0 C1.15951172 0.00088623 2.31902344 0.00177246 3.51367188 0.00268555 C18.91944503 0.20763809 34.2519304 2.43187184 49.05029297 6.73461914 C51.23053091 7.31947945 53.32647986 7.71222064 55.5625 8 C58.4375 8.375 58.4375 8.375 59.4375 9.375 C59.53120624 11.15491924 59.55494271 12.93856739 59.55102539 14.72094727 C59.55091209 16.43260826 59.55091209 16.43260826 59.55079651 18.17884827 C59.54563522 19.4204924 59.54047394 20.66213654 59.53515625 21.94140625 C59.5337413 23.20516586 59.53232635 24.46892548 59.53086853 25.77098083 C59.52620582 29.13624889 59.5172148 32.5014499 59.50616455 35.86669922 C59.49594846 39.2984967 59.49137049 42.73030109 59.48632812 46.16210938 C59.4752738 52.89975824 59.4585171 59.63737525 59.4375 66.375 C45.52388879 74.19109746 45.52388879 74.19109746 38.1875 76.125 C37.47480957 76.32053467 36.76211914 76.51606934 36.02783203 76.7175293 C33.83729798 77.29992365 31.64129923 77.84519274 29.4375 78.375 C28.76235352 78.54016113 28.08720703 78.70532227 27.39160156 78.87548828 C10.62272796 82.81702955 -8.00402795 83.47467905 -24.5625 78.375 C-25.67882812 78.04628906 -26.79515625 77.71757812 -27.9453125 77.37890625 C-39.15813629 73.61961846 -46.5003447 67.03199787 -52.50390625 56.9296875 C-55.10411802 50.65463769 -54.74513807 43.7476553 -54.75 37.0625 C-54.76224609 36.15693359 -54.77449219 35.25136719 -54.78710938 34.31835938 C-54.78904297 33.45404297 -54.79097656 32.58972656 -54.79296875 31.69921875 C-54.79707764 30.91635498 -54.80118652 30.13349121 -54.80541992 29.3269043 C-54.5625 27.375 -54.5625 27.375 -52.5625 25.375 C-52.19125 24.34375 -51.82 23.3125 -51.4375 22.25 C-47.78274604 13.52222934 -39.92489367 8.89176909 -31.5625 5.375 C-30.55896484 4.93027344 -30.55896484 4.93027344 -29.53515625 4.4765625 C-20.11465179 0.58506577 -10.07956132 -0.01410663 0 0 Z " fill="#FDFDFD" transform="translate(238.5625,250.625)"/>
<path d="M0 0 C0.66 0.33 1.32 0.66 2 1 C1.49662109 1.47195801 0.99324219 1.94391602 0.47460938 2.43017578 C-13.31403982 15.46999137 -26.71015429 29.19177004 -28.625 49.125 C-28.74875 50.40375 -28.8725 51.6825 -29 53 C-29.99 53.495 -29.99 53.495 -31 54 C-32.24773107 41.52268934 -25.27661412 27.06402652 -17.73974609 17.38085938 C-12.40517698 11.01248888 -6.44265123 5.24273051 0 0 Z " fill="#298BB4" transform="translate(163,226)"/>
<path d="M0 0 C4.15851378 -0.05030772 8.31685552 -0.08613707 12.47558594 -0.10986328 C13.88349501 -0.11977813 15.29138433 -0.13331412 16.69921875 -0.15087891 C26.34990903 -0.26806586 35.46321666 0.33906797 45 2 C45 2.33 45 2.66 45 3 C42.56242587 3.02698422 40.12515085 3.04683099 37.6875 3.0625 C36.99720703 3.07087891 36.30691406 3.07925781 35.59570312 3.08789062 C32.4516975 3.10307906 30.00579981 3.00193327 27 2 C24.93637009 1.84970012 22.86876085 1.75155552 20.80078125 1.68359375 C19.59228516 1.64169922 18.38378906 1.59980469 17.13867188 1.55664062 C15.87603516 1.51732422 14.61339844 1.47800781 13.3125 1.4375 C12.03826172 1.39431641 10.76402344 1.35113281 9.45117188 1.30664062 C6.30089148 1.2004514 3.15053161 1.09840467 0 1 C0 0.67 0 0.34 0 0 Z " fill="#BB74B0" transform="translate(230,101)"/>
<path d="M0 0 C0.66 0.33 1.32 0.66 2 1 C-3.94 6.94 -9.88 12.88 -16 19 C-16.33 18.34 -16.66 17.68 -17 17 C-11.83794309 10.72690435 -6.12627407 5.3250511 0 0 Z " fill="#1777B9" transform="translate(163,226)"/>
<path d="M0 0 C1.43739513 -0.02712066 2.87493863 -0.04645067 4.3125 -0.0625 C5.51326172 -0.07990234 5.51326172 -0.07990234 6.73828125 -0.09765625 C9 0 9 0 12 1 C12 1.66 12 2.32 12 3 C13.11375 3.144375 14.2275 3.28875 15.375 3.4375 C19 4 19 4 21 5 C21 5.66 21 6.32 21 7 C20.40574219 6.81824219 19.81148438 6.63648438 19.19921875 6.44921875 C12.82913223 4.51738847 6.42941642 2.72347474 0 1 C0 0.67 0 0.34 0 0 Z " fill="#B856A5" transform="translate(259,151)"/>
<path d="M0 0 C3.68069887 1.53643852 5.98775204 3.78150945 8.75 6.625 C9.54921875 7.44226563 10.3484375 8.25953125 11.171875 9.1015625 C12.07679688 10.04128906 12.07679688 10.04128906 13 11 C12.67 11.66 12.34 12.32 12 13 C10.36828877 11.59106853 8.74486055 10.17254042 7.125 8.75 C6.22007812 7.96109375 5.31515625 7.1721875 4.3828125 6.359375 C2.25560007 4.25308597 1.09487694 2.74348474 0 0 Z " fill="#1C85B2" transform="translate(149,345)"/>
<path d="M0 0 C-2.11997834 1.19733988 -4.24513676 2.38298713 -6.375 3.5625 C-6.97828125 3.90474609 -7.5815625 4.24699219 -8.203125 4.59960938 C-9.76978241 5.46127095 -11.38290862 6.23718183 -13 7 C-13.66 6.67 -14.32 6.34 -15 6 C-13.58833114 5.01364163 -12.17043816 4.03618745 -10.75 3.0625 C-9.96109375 2.51722656 -9.1721875 1.97195312 -8.359375 1.41015625 C-3.26696833 -1.63348416 -3.26696833 -1.63348416 0 0 Z " fill="#3476BA" transform="translate(180,219)"/>
</svg>
