<?xml version="1.0" encoding="UTF-8"?>
<svg version="1.1" xmlns="http://www.w3.org/2000/svg" width="480" height="480">
<path d="M0 0 C158.4 0 316.8 0 480 0 C480 158.4 480 316.8 480 480 C321.6 480 163.2 480 0 480 C0 321.6 0 163.2 0 0 Z " fill="#000000" transform="translate(0,0)"/>
<path d="M0 0 C1.57310692 -0.00856522 1.57310692 -0.00856522 3.17799377 -0.01730347 C4.33336136 -0.01842133 5.48872894 -0.01953918 6.67910767 -0.02069092 C7.89217087 -0.02565582 9.10523407 -0.03062073 10.35505676 -0.03573608 C13.68776134 -0.04785745 17.02040307 -0.05530614 20.35312223 -0.05974674 C22.4346427 -0.06267646 24.51615764 -0.06678107 26.59767532 -0.07125092 C33.10849176 -0.08492728 39.61929559 -0.0945933 46.1301254 -0.09845281 C53.64927184 -0.10293434 61.16823657 -0.12048592 68.68732774 -0.1494534 C74.49715275 -0.17105998 80.3069266 -0.18115653 86.11679137 -0.18249393 C89.58781326 -0.18354268 93.05866437 -0.18946521 96.52964401 -0.20731354 C100.40113966 -0.22683386 104.27240767 -0.22250933 108.14395142 -0.21600342 C109.8709301 -0.22982559 109.8709301 -0.22982559 111.63279724 -0.243927 C112.68717484 -0.23835785 113.74155243 -0.2327887 114.82788086 -0.22705078 C116.20114312 -0.22925062 116.20114312 -0.22925062 117.60214806 -0.2314949 C120.57053085 0.22121202 121.92914539 1.0194887 124.04092407 3.14044189 C125.34108522 11.51550594 121.97868585 17.70167977 118.41592407 25.14044189 C114.90404648 32.68519761 111.45211915 40.164615 108.85342407 48.07794189 C106.49463562 55.211474 103.49923495 61.95287039 100.3565979 68.77325439 C97.76209128 74.43757207 95.4650485 80.13494768 93.34951782 85.99224854 C91.28817729 91.63488665 88.9372137 97.13278096 86.54092407 102.64044189 C83.63220001 109.3292496 80.9047935 116.03033226 78.42642212 122.88897705 C75.79805652 130.03043431 72.67967123 136.96192168 69.55484009 143.89776611 C67.62236478 148.24194938 65.86417233 152.48943237 64.57608032 157.07012939 C62.86281524 163.10621332 60.26151077 168.69060319 57.66592407 174.39044189 C53.27960644 184.13707643 53.27960644 184.13707643 49.54092407 194.14044189 C46.88385916 202.04274977 43.39095405 209.58136548 39.96084595 217.17364502 C37.98410567 221.57776707 36.03641834 225.92079651 34.57998657 230.52716064 C32.35248146 237.55975786 29.18590138 244.24390524 26.22940063 250.99298096 C23.44731319 257.35637369 20.72296457 263.6642182 18.62734985 270.28985596 C17.85019203 272.74233567 16.93298536 275.12710636 15.97842407 277.51544189 C15.65744751 278.32755127 15.33647095 279.13966064 15.00576782 279.97637939 C14.04092407 282.14044189 14.04092407 282.14044189 12.04092407 285.14044189 C10.39092407 284.81044189 8.74092407 284.48044189 7.04092407 284.14044189 C5.31072115 276.53822566 4.44791285 269.00606948 3.82217407 261.24200439 C3.71876709 260.01299408 3.61536011 258.78398376 3.50881958 257.51773071 C3.29109081 254.91758155 3.0760959 252.31720218 2.86367798 249.71661377 C2.54694606 245.83916347 2.2225004 241.96242622 1.89639282 238.08575439 C0.73714007 224.20281777 -0.33825353 210.3161825 -1.287323 196.41720581 C-1.62557576 191.51736906 -1.99299818 186.63070879 -2.50473022 181.7456665 C-2.88646217 178.07086765 -3.09353096 174.44297209 -3.13485718 170.74591064 C-3.45988831 152.6516871 -4.75429946 134.76636321 -6.44223022 116.75030518 C-7.60610827 104.30617294 -8.57798204 91.87668962 -9.30599976 79.3994751 C-9.66557856 73.33142999 -10.12476822 67.30860834 -10.80795288 61.26885986 C-12.01363977 50.33772518 -12.2617188 39.39420651 -12.3664856 28.40551758 C-12.38643956 26.53045241 -12.41455024 24.65545513 -12.45108032 22.78063965 C-12.49898055 20.12793579 -12.5129011 17.47712614 -12.51766968 14.82403564 C-12.53711136 14.02286819 -12.55655304 13.22170074 -12.57658386 12.39625549 C-12.54250487 8.12549031 -12.33670083 6.60743279 -9.54916382 3.16021729 C-6.02011515 0.40823127 -4.39669439 0.01429748 0 0 Z " fill="#FCFCFC" transform="translate(96.95907592773438,87.85955810546875)"/>
<path d="M0 0 C0.68087856 -0.00538554 1.36175712 -0.01077108 2.06326836 -0.01631981 C4.3262366 -0.03053411 6.58861445 -0.02351219 8.85160828 -0.01637268 C10.48171964 -0.02207979 12.111827 -0.02904537 13.7419281 -0.03717041 C18.15739131 -0.05508201 22.57265556 -0.05393688 26.98814416 -0.04822803 C30.68076506 -0.04513243 34.37334796 -0.05123294 38.06596345 -0.05726677 C46.78214168 -0.07130463 55.49822189 -0.06975764 64.21440125 -0.05836487 C73.19001747 -0.04689182 82.1653346 -0.06094729 91.1409114 -0.08776134 C98.8609115 -0.10995629 106.58081798 -0.11654696 114.30084771 -0.11068493 C118.90546498 -0.10732232 123.50989069 -0.10968367 128.11448097 -0.12693596 C132.44763317 -0.142463 136.78034447 -0.13838611 141.11347961 -0.11963081 C142.69765326 -0.11596041 144.28185999 -0.11900792 145.86600304 -0.1295166 C156.01031177 -0.19163682 164.9071128 0.41982308 173.26445007 6.71580505 C176.10576323 9.61216601 178.02545992 12.54346537 179.82304382 16.13768005 C180.15658875 16.78527283 180.49013367 17.4328656 180.83378601 18.1000824 C186.69000099 29.70447433 191.53373609 41.8228821 194.88554382 54.38768005 C195.09566101 55.09537537 195.3057782 55.80307068 195.52226257 56.5322113 C195.94804382 58.32518005 195.94804382 58.32518005 195.88554382 61.38768005 C192.84733273 66.22982898 189.18011384 69.1219225 183.88554382 71.38768005 C180.8952109 71.93906963 177.97700621 71.94573966 174.9420929 71.92253113 C174.06449826 71.93159335 173.18690362 71.94065558 172.2827152 71.94999242 C169.35404695 71.97523057 166.42612492 71.97204326 163.49736023 71.96873474 C161.39272102 71.98070836 159.2880906 71.99432016 157.18347168 72.00944519 C151.47473918 72.0447463 145.76624658 72.05415503 140.05741549 72.05670834 C136.48915779 72.05955342 132.92096092 72.06809641 129.35271835 72.0786972 C116.89975365 72.11568952 104.44696009 72.13203924 91.99394226 72.12889099 C80.39264023 72.12648746 68.79208195 72.16870685 57.19096816 72.23186564 C47.22385431 72.28419167 37.25698342 72.30562564 27.28973329 72.30306935 C21.33964972 72.30205019 15.39022745 72.31341056 9.44028091 72.35578156 C3.84369511 72.39454945 -1.75159862 72.39479593 -7.34823036 72.36571503 C-9.39887317 72.36153697 -11.44959688 72.37095264 -13.50010109 72.39515686 C-30.90988491 72.58730924 -30.90988491 72.58730924 -36.8291626 67.55101013 C-39.27698489 64.88270256 -40.14376418 63.30096662 -41.3261261 59.80271912 C-41.08787823 55.95887697 -40.26446515 53.27673054 -38.72773743 49.74705505 C-38.46945663 49.13936279 -38.21117584 48.53167053 -37.94506836 47.90556335 C-37.1212821 45.97577334 -36.27520405 44.05682573 -35.42695618 42.13768005 C-34.60417276 40.23715942 -33.78620492 38.33462873 -32.96925354 36.43159485 C-32.43539612 35.18858204 -31.89940119 33.94648498 -31.36122131 32.70533752 C-29.37662397 28.10051298 -27.62397243 23.44513969 -25.99946594 18.70262146 C-23.00434648 10.86821519 -18.4025134 5.51476999 -10.86379719 1.77519131 C-6.95301057 0.32793419 -4.14955198 0.00831878 0 0 Z " fill="#FCFCFC" transform="translate(197.1144561767578,313.61231994628906)"/>
<path d="M0 0 C2.25 -0.3125 2.25 -0.3125 5 0 C8.17267209 3.36866728 9.83496325 6.60682927 11.375 10.9375 C14.00280188 18.07354915 16.96792428 25.02776496 20 32 C22.98679701 38.86811698 25.93125617 45.72996592 28.5859375 52.734375 C31.04083509 59.20619933 33.86201118 65.46195646 36.78125 71.734375 C38.52246664 75.52902644 40.14448121 79.26768542 41.40625 83.25 C43.4365278 89.60069785 46.20943987 95.64606378 48.875 101.75 C51.88313301 108.6514523 54.86137237 115.54089074 57.51953125 122.5859375 C60.42808486 130.26582623 63.86018129 137.69468215 67.33398438 145.1328125 C71.88094957 155.17944035 71.88094957 155.17944035 71 161 C68.78136971 163.90717073 67.48055071 164.83981643 64 166 C61.33567344 166.15716481 58.69418516 166.25900803 56.02734375 166.31640625 C55.18884888 166.33741394 54.350354 166.35842163 53.4864502 166.38006592 C50.63690797 166.44791828 47.7872983 166.50645979 44.9375 166.5625 C43.94944366 166.58234955 42.96138733 166.6021991 41.94338989 166.62265015 C33.62937504 166.783361 25.31495814 166.90083012 17 167 C15.88981506 167.01324814 15.88981506 167.01324814 14.75720215 167.02676392 C3.99655525 167.15263348 -6.76384509 167.23801288 -17.52511597 167.28610229 C-20.88244196 167.30169039 -24.23950743 167.32654608 -27.59671021 167.35916138 C-31.60406709 167.39739301 -35.611043 167.41561465 -39.61857605 167.41901398 C-41.10990555 167.42347891 -42.60123231 167.4347713 -44.092453 167.45333099 C-46.15265743 167.47768234 -48.21142414 167.4768539 -50.27172852 167.4699707 C-51.43124527 167.47583694 -52.59076202 167.48170319 -53.78541565 167.48774719 C-57.74449608 166.887038 -59.89053039 165.48129854 -63 163 C-65.22801054 159.65798419 -65.20335272 158.24565942 -64.61328125 154.37109375 C-63.66185878 150.69266419 -62.04008807 147.39649596 -60.3515625 144.00390625 C-59.28962317 141.64370006 -58.4617698 139.42968649 -57.6796875 136.9765625 C-55.66451656 130.76732514 -53.06273818 124.81148261 -50.5 118.8125 C-50.01402344 117.66330078 -49.52804688 116.51410156 -49.02734375 115.33007812 C-45.38482443 106.75973635 -45.38482443 106.75973635 -43.45507812 102.94995117 C-42.13429349 100.27225978 -41.09415427 97.6633028 -40.125 94.84375 C-37.6680456 87.93998839 -34.69048471 81.29590657 -31.7109375 74.60546875 C-29.66337455 69.96390734 -27.72049301 65.33419682 -26.02734375 60.55078125 C-23.85837737 54.4487268 -21.22407371 48.58770825 -18.5625 42.6875 C-15.11191708 34.96455134 -11.95293656 27.31627985 -9.2578125 19.30078125 C-6.71345217 12.62381081 -3.30976509 6.32386879 0 0 Z " fill="#FCFCFC" transform="translate(271,92)"/>
</svg>
