<?xml version="1.0" encoding="UTF-8"?>
<svg version="1.1" xmlns="http://www.w3.org/2000/svg" width="480" height="480">
<path d="M0 0 C158.4 0 316.8 0 480 0 C480 158.4 480 316.8 480 480 C321.6 480 163.2 480 0 480 C0 321.6 0 163.2 0 0 Z " fill="#38D67A" transform="translate(0,0)"/>
<path d="M0 0 C18.48 0 36.96 0 56 0 C54.44386362 3.89034094 52.78902924 7.6450593 51 11.42578125 C46.13942846 23.93795565 45.87541315 40.24327018 50.55859375 52.82421875 C58.23405235 69.73518851 68.14927561 83.15770995 86.078125 90.2109375 C94.69532049 93.20360884 102.42613776 94.14805576 111.49658203 94.15771484 C112.54132187 94.16279556 113.58606171 94.16787628 114.66246033 94.17311096 C116.9262827 94.18379059 119.19011547 94.19242016 121.45395279 94.19923019 C125.04511187 94.21106037 128.63615292 94.23052515 132.2272644 94.25234985 C142.43629998 94.3138186 152.64532323 94.36792522 162.85449219 94.40136719 C169.10552999 94.42239153 175.3563517 94.45775786 181.60726547 94.50212479 C183.98090943 94.51622404 186.35459161 94.52499339 188.7282753 94.52817917 C192.06142813 94.5331253 195.39401443 94.5563791 198.72705078 94.58349609 C200.17704216 94.57898689 200.17704216 94.57898689 201.65632629 94.5743866 C218.48215015 94.77617594 232.26790524 101.07935371 244 113 C244.598125 113.59941406 245.19625 114.19882812 245.8125 114.81640625 C252.73326607 122.27353169 256.14650512 132.16635657 256.046875 142.25390625 C256.04010742 143.14537354 256.03333984 144.03684082 256.02636719 144.95532227 C256.01766602 145.63006592 256.00896484 146.30480957 256 147 C235.97102307 147.07034343 215.9420715 147.12311152 195.91299629 147.15543652 C186.6113889 147.17085012 177.30985864 147.1918332 168.00830078 147.22631836 C159.89311125 147.25639054 151.77797763 147.27561492 143.66273391 147.28226548 C139.37298711 147.28614783 135.08340013 147.29515433 130.79370499 147.31719017 C92.287166 147.5071228 57.45622101 142.55051106 28.75 114.375 C6.85619204 91.97728203 -5.35292383 62.22735971 -5.30932617 30.9074707 C-5.08877253 20.29714403 -2.9083532 10.17923621 0 0 Z " fill="#FCFEFD" transform="translate(133,201)"/>
<path d="M0 0 C20.04624769 -0.07032176 40.09247009 -0.12310105 60.13881588 -0.15543652 C69.44829895 -0.17085466 78.75770504 -0.1918466 88.06713867 -0.22631836 C96.18854455 -0.25637645 104.30989462 -0.27561164 112.43135458 -0.28226548 C116.72498176 -0.28615017 121.01844941 -0.2951721 125.31202507 -0.31719017 C129.36758983 -0.33781577 133.422932 -0.34378222 137.47854424 -0.33932304 C138.95335609 -0.34013676 140.42817676 -0.34594517 141.90294266 -0.35761642 C175.41850017 -0.60945703 205.26366838 11.39052883 229.3125 34.75 C243.72831788 49.42008646 253.2997494 68.08210635 258 88 C258.17515137 88.6084375 258.35030273 89.216875 258.53076172 89.84375 C260.36649175 96.76089867 260.37221842 103.73272252 260.37060547 110.84423828 C260.37493602 112.96861665 260.41122839 115.09083698 260.44921875 117.21484375 C260.47962827 128.17240801 258.62773109 135.83214285 256 147 C237.52 147 219.04 147 200 147 C200.66 145.35 201.32 143.7 202 142 C202.86426513 139.64952193 203.71780494 137.29508174 204.5625 134.9375 C204.99691406 133.72964844 205.43132812 132.52179688 205.87890625 131.27734375 C207.92048393 125.30910795 208.21490415 120.1571575 208.25 113.875 C208.270625 112.97523438 208.29125 112.07546875 208.3125 111.1484375 C208.39458663 96.86536409 202.0510253 82.30855249 192.171875 72.02734375 C173.52379815 54.62023604 155.38102505 52.25321091 130.734375 52.3984375 C128.32358079 52.39292391 125.91279132 52.38478728 123.50201416 52.37417603 C117.20077678 52.35145276 110.89988855 52.35544823 104.59863281 52.36798096 C94.50282851 52.38639344 84.40722638 52.37614478 74.31147003 52.34212112 C70.81016701 52.33606852 67.30931213 52.34920713 63.80804443 52.36410522 C44.63918974 52.37335092 28.61536425 50.61019963 14.0625 36.6875 C3.84852148 25.75988106 -0.10923176 14.89576222 0 0 Z " fill="#FCFEFD" transform="translate(91,132)"/>
</svg>
