<?xml version="1.0" encoding="UTF-8"?>
<svg version="1.1" xmlns="http://www.w3.org/2000/svg" width="96" height="96">
<path d="M0 0 C31.68 0 63.36 0 96 0 C96 31.68 96 63.36 96 96 C64.32 96 32.64 96 0 96 C0 64.32 0 32.64 0 0 Z " fill="#F2F2E3" transform="translate(0,0)"/>
<path d="M0 0 C0.83920486 0.00565979 1.67840973 0.01131958 2.54304504 0.01715088 C5.22328758 0.03954094 7.90219288 0.08974047 10.58203125 0.140625 C12.39906923 0.16068668 14.21612817 0.17893803 16.03320312 0.1953125 C20.48749437 0.23941414 24.9407861 0.30845841 29.39453125 0.390625 C29.51028093 10.63901208 29.59917317 20.88724419 29.65359211 31.13615131 C29.67970808 35.89495714 29.71514224 40.65331644 29.77172852 45.41186523 C29.82597755 50.00249315 29.85593671 54.59269107 29.86891747 59.18361473 C29.87817021 60.93679769 29.89623862 62.68995659 29.92318153 64.44295692 C29.95937908 66.89519077 29.96448076 69.34563855 29.9621582 71.7980957 C29.98013458 72.52601822 29.99811096 73.25394073 30.01663208 74.00392151 C29.99580383 76.03071594 29.99580383 76.03071594 29.39453125 79.390625 C26.92155457 81.24015808 26.92155457 81.24015808 24.39453125 82.390625 C24.06453125 83.050625 23.73453125 83.710625 23.39453125 84.390625 C22.40453125 84.060625 21.41453125 83.730625 20.39453125 83.390625 C21.76953125 81.890625 21.76953125 81.890625 23.39453125 80.390625 C24.05453125 80.390625 24.71453125 80.390625 25.39453125 80.390625 C25.39453125 79.070625 25.39453125 77.750625 25.39453125 76.390625 C22.91953125 76.885625 22.91953125 76.885625 20.39453125 77.390625 C20.39453125 78.050625 20.39453125 78.710625 20.39453125 79.390625 C19.40453125 79.390625 18.41453125 79.390625 17.39453125 79.390625 C17.25015625 80.03 17.10578125 80.669375 16.95703125 81.328125 C16.39453125 83.390625 16.39453125 83.390625 15.39453125 84.390625 C13.70311469 84.30099438 12.01493523 84.14484824 10.33203125 83.953125 C9.41292969 83.85128906 8.49382812 83.74945313 7.546875 83.64453125 C6.48146484 83.51884766 6.48146484 83.51884766 5.39453125 83.390625 C6.64994682 80.87979386 7.89516613 80.51937054 10.39453125 79.390625 C9.73453125 78.730625 9.07453125 78.070625 8.39453125 77.390625 C8.39453125 76.070625 8.39453125 74.750625 8.39453125 73.390625 C6.90953125 73.885625 6.90953125 73.885625 5.39453125 74.390625 C5.39453125 73.400625 5.39453125 72.410625 5.39453125 71.390625 C4.40453125 71.390625 3.41453125 71.390625 2.39453125 71.390625 C2.06453125 72.380625 1.73453125 73.370625 1.39453125 74.390625 C-0.58546875 74.390625 -2.56546875 74.390625 -4.60546875 74.390625 C-4.60546875 73.400625 -4.60546875 72.410625 -4.60546875 71.390625 C-5.26546875 71.390625 -5.92546875 71.390625 -6.60546875 71.390625 C-6.60546875 70.730625 -6.60546875 70.070625 -6.60546875 69.390625 C-7.49234375 69.431875 -8.37921875 69.473125 -9.29296875 69.515625 C-12.57823888 69.39165254 -14.6599617 68.77674596 -17.60546875 67.390625 C-17.60546875 67.060625 -17.60546875 66.730625 -17.60546875 66.390625 C-13.97546875 66.720625 -10.34546875 67.050625 -6.60546875 67.390625 C-6.60546875 66.400625 -6.60546875 65.410625 -6.60546875 64.390625 C-4.62546875 64.390625 -2.64546875 64.390625 -0.60546875 64.390625 C-0.60546875 49.540625 -0.60546875 34.690625 -0.60546875 19.390625 C-2.58546875 19.390625 -4.56546875 19.390625 -6.60546875 19.390625 C-6.93546875 18.400625 -7.26546875 17.410625 -7.60546875 16.390625 C-8.59546875 16.060625 -9.58546875 15.730625 -10.60546875 15.390625 C-11.41796875 13.453125 -11.41796875 13.453125 -11.60546875 11.390625 C-10.94546875 10.730625 -10.28546875 10.070625 -9.60546875 9.390625 C-10.59546875 9.060625 -11.58546875 8.730625 -12.60546875 8.390625 C-11.20512985 0.54872716 -7.37745609 -0.18671685 0 0 Z " fill="#F4F2E2" transform="translate(66.60546875,-0.390625)"/>
<path d="M0 0 C0 0.66 0 1.32 0 2 C1.98 2 3.96 2 6 2 C6 16.85 6 31.7 6 47 C4.02 47 2.04 47 0 47 C0 47.99 0 48.98 0 50 C-7.27445798 49.52666198 -14.51432237 48.88076564 -21.75 48 C-22.45318359 47.9170166 -23.15636719 47.8340332 -23.88085938 47.74853516 C-28.87936159 47.12063841 -28.87936159 47.12063841 -30 46 C-30.09268999 44.64905018 -30.11747326 43.29332909 -30.11352539 41.93920898 C-30.11344986 41.07839218 -30.11337433 40.21757538 -30.11329651 39.33067322 C-30.10813522 38.39526199 -30.10297394 37.45985077 -30.09765625 36.49609375 C-30.0962413 35.54307877 -30.09482635 34.59006378 -30.09336853 33.60816956 C-30.08775152 30.55124835 -30.07519616 27.49439923 -30.0625 24.4375 C-30.05748719 22.37044376 -30.05292391 20.30338638 -30.04882812 18.23632812 C-30.03777656 13.15752412 -30.02050055 8.0787743 -30 3 C-28.08600164 2.67930447 -26.17192371 2.35908379 -24.2578125 2.0390625 C-23.19191895 1.86068848 -22.12602539 1.68231445 -21.02783203 1.49853516 C-13.96841108 0.33619541 -7.15683987 -0.1319909 0 0 Z " fill="#EC112E" transform="translate(60,17)"/>
<path d="M0 0 C19.14 0 38.28 0 58 0 C56.68 2.64 55.36 5.28 54 8 C55.32 8.33 56.64 8.66 58 9 C57.67 9.61875 57.34 10.2375 57 10.875 C55.85806765 12.91018344 55.85806765 12.91018344 56 15 C57.32 15.33 58.64 15.66 60 16 C60 16.33 60 16.66 60 17 C50.1 17.99 40.2 18.98 30 20 C30 34.19 30 48.38 30 63 C29.67 63 29.34 63 29 63 C28.67 47.82 28.34 32.64 28 17 C26.35 17 24.7 17 23 17 C22.09811013 18.43634312 21.20362575 19.87836597 20.36328125 21.3515625 C18.00649064 24.20132077 14.63667526 25.27072935 11.33203125 26.78515625 C8.34173196 28.34291685 6.87242651 30.2260348 5 33 C2.525 35.475 2.525 35.475 0 38 C0 25.46 0 12.92 0 0 Z " fill="#FEBE81" transform="translate(0,0)"/>
<path d="M0 0 C3.63 0 7.26 0 11 0 C11 0.99 11 1.98 11 3 C13.97065509 2.65772428 13.97065509 2.65772428 17 2 C17.33 1.34 17.66 0.68 18 0 C18.99 0 19.98 0 21 0 C21.33 0.66 21.66 1.32 22 2 C22.66 2 23.32 2 24 2 C24.12375 2.61875 24.2475 3.2375 24.375 3.875 C24.87197356 6.19120832 24.87197356 6.19120832 27 8 C25.35 8.99 23.7 9.98 22 11 C24.97 11.33 27.94 11.66 31 12 C31.66 10.68 32.32 9.36 33 8 C33.99 8 34.98 8 36 8 C36 7.34 36 6.68 36 6 C37.65 5.67 39.3 5.34 41 5 C41 6.32 41 7.64 41 9 C39 10.75 39 10.75 37 12 C37.66 12.33 38.32 12.66 39 13 C39.33 12.01 39.66 11.02 40 10 C41.65 9.34 43.3 8.68 45 8 C45 13.61 45 19.22 45 25 C26.85 25 8.7 25 -10 25 C-8.35 23.02 -6.7 21.04 -5 19 C-4.360625 18.195625 -3.72125 17.39125 -3.0625 16.5625 C-2.381875 16.046875 -1.70125 15.53125 -1 15 C1.00546689 15.29868656 3.00577205 15.63371323 5 16 C7.58944746 14.66299965 7.58944746 14.66299965 10 13 C12.8125 12.3125 12.8125 12.3125 15 12 C15 11.34 15 10.68 15 10 C14.67 9.67 14.34 9.34 14 9 C12.57840967 9.1174868 11.16153415 9.29434602 9.75 9.5 C6.24578177 9.94152032 3.43828367 9.99821139 0 9 C0 6.03 0 3.06 0 0 Z " fill="#ADF5A0" transform="translate(51,71)"/>
<path d="M0 0 C9.9 0 19.8 0 30 0 C29.01 0.495 29.01 0.495 28 1 C27.67 1.99 27.34 2.98 27 4 C26.01 4 25.02 4 24 4 C23.9175 4.763125 23.835 5.52625 23.75 6.3125 C23 9 23 9 21.375 10.6875 C19 12 19 12 15.6875 12.875 C10.16061291 14.56116894 6.21220971 17.18168543 3 22 C2.01 22 1.02 22 0 22 C0 14.74 0 7.48 0 0 Z " fill="#FE8701" transform="translate(0,0)"/>
<path d="M0 0 C0 5.61 0 11.22 0 17 C-15.51 17 -31.02 17 -47 17 C-44.17259597 12.75889396 -40.84851366 12.10647538 -36 11 C-33.27026389 10.78413948 -30.74396659 10.8503291 -28 11 C-28 10.34 -28 9.68 -28 9 C-27.25234375 9.0721875 -26.5046875 9.144375 -25.734375 9.21875 C-24.25710937 9.35796875 -24.25710937 9.35796875 -22.75 9.5 C-21.77546875 9.5928125 -20.8009375 9.685625 -19.796875 9.78125 C-17.53697847 9.95800168 -15.26679807 10 -13 10 C-11.64172029 8.35360035 -10.30745749 6.68704193 -9 5 C-8.01 5 -7.02 5 -6 5 C-5.67 4.01 -5.34 3.02 -5 2 C-2 0 -2 0 0 0 Z " fill="#A1F18C" transform="translate(96,79)"/>
<path d="M0 0 C1.32 0.33 2.64 0.66 4 1 C2.68 3.31 1.36 5.62 0 8 C1.32 8.33 2.64 8.66 4 9 C3.67 9.61875 3.34 10.2375 3 10.875 C1.85806765 12.91018344 1.85806765 12.91018344 2 15 C3.32 15.33 4.64 15.66 6 16 C6 16.33 6 16.66 6 17 C-3.9 17.99 -13.8 18.98 -24 20 C-24 34.19 -24 48.38 -24 63 C-24.33 63 -24.66 63 -25 63 C-25.00808685 62.42814972 -25.01617371 61.85629944 -25.02450562 61.26712036 C-25.11037948 55.33003001 -25.20987473 49.39328019 -25.31738281 43.45654297 C-25.35573134 41.2391531 -25.39057371 39.02169976 -25.421875 36.80419922 C-25.46739826 33.62183911 -25.52541319 30.43991818 -25.5859375 27.2578125 C-25.59748871 26.26194122 -25.60903992 25.26606995 -25.62094116 24.24002075 C-25.6507457 22.85881546 -25.6507457 22.85881546 -25.68115234 21.44970703 C-25.69447601 20.6369632 -25.70779968 19.82421936 -25.7215271 18.98684692 C-25.82899081 16.76959942 -25.82899081 16.76959942 -28 15 C-26.35 14.01 -24.7 13.02 -23 12 C-22.67 13.32 -22.34 14.64 -22 16 C-16.5948731 13.34842831 -14.36869175 11.7347274 -12 6 C-10 4 -10 4 -8.0546875 3.8046875 C-6.03645833 3.86979167 -4.01822917 3.93489583 -2 4 C-1.34 2.68 -0.68 1.36 0 0 Z " fill="#FDC8A0" transform="translate(54,0)"/>
<path d="M0 0 C1.21236328 0.04060547 1.21236328 0.04060547 2.44921875 0.08203125 C3.06410156 0.11683594 3.67898437 0.15164063 4.3125 0.1875 C4.003125 0.950625 3.69375 1.71375 3.375 2.5 C2.63356407 4.37539677 1.95021783 6.27434652 1.3125 8.1875 C-0.0075 8.1875 -1.3275 8.1875 -2.6875 8.1875 C-2.6875 7.5275 -2.6875 6.8675 -2.6875 6.1875 C-8.90295598 8.8238283 -8.90295598 8.8238283 -12.75 13.875 C-13.059375 14.638125 -13.36875 15.40125 -13.6875 16.1875 C-15.75312355 16.95773251 -17.73640342 17.37276259 -19.91015625 17.73046875 C-20.49667969 17.88128906 -21.08320313 18.03210938 -21.6875 18.1875 C-22.0175 18.8475 -22.3475 19.5075 -22.6875 20.1875 C-23.6775 20.1875 -24.6675 20.1875 -25.6875 20.1875 C-25.95433594 20.77015625 -26.22117187 21.3528125 -26.49609375 21.953125 C-27.71136752 24.23226137 -29.05819172 25.99212832 -30.75 27.9375 C-31.54083984 28.85789062 -31.54083984 28.85789062 -32.34765625 29.796875 C-32.78980469 30.25578125 -33.23195312 30.7146875 -33.6875 31.1875 C-34.0175 31.1875 -34.3475 31.1875 -34.6875 31.1875 C-34.6875 28.2175 -34.6875 25.2475 -34.6875 22.1875 C-33.6975 21.8575 -32.7075 21.5275 -31.6875 21.1875 C-30.924375 20.424375 -30.16125 19.66125 -29.375 18.875 C-24.55398285 14.05398285 -20.21769408 11.94562918 -13.6875 10.1875 C-11.53684216 8.40016773 -11.53684216 8.40016773 -11.25 6.125 C-11.064375 5.485625 -10.87875 4.84625 -10.6875 4.1875 C-9.6975 3.8575 -8.7075 3.5275 -7.6875 3.1875 C-7.22730469 2.67574219 -6.76710938 2.16398438 -6.29296875 1.63671875 C-4.13550101 -0.31077646 -2.85541604 -0.12414852 0 0 Z " fill="#FEB666" transform="translate(34.6875,-0.1875)"/>
<path d="M0 0 C1.32 0 2.64 0 4 0 C4 12.54 4 25.08 4 38 C2.68 38 1.36 38 0 38 C0 25.46 0 12.92 0 0 Z " fill="#FECBCB" transform="translate(60,22)"/>
<path d="M0 0 C1.32 0.33 2.64 0.66 4 1 C3.401875 1.7425 2.80375 2.485 2.1875 3.25 C0.04114488 5.81677376 0.04114488 5.81677376 -1.25 8.125 C-3.18184975 10.19483902 -4.23407072 10.5243636 -6.875 11.375 C-11.31020704 12.86691608 -13.20646016 15.22494616 -16 19 C-17.62098197 20.71949468 -19.30443758 22.35288222 -21 24 C-21.36140259 19.80458734 -21.34094986 17.56539064 -19.13671875 13.91015625 C-18.32847656 12.97042969 -17.52023438 12.03070313 -16.6875 11.0625 C-15.88699219 10.10472656 -15.08648437 9.14695312 -14.26171875 8.16015625 C-12 6 -12 6 -9 6 C-8.67 5.01 -8.34 4.02 -8 3 C-5.36 2.67 -2.72 2.34 0 2 C0 1.34 0 0.68 0 0 Z " fill="#FEC58F" transform="translate(21,14)"/>
<path d="M0 0 C-0.99 0.495 -0.99 0.495 -2 1 C-2.33 1.99 -2.66 2.98 -3 4 C-3.99 4 -4.98 4 -6 4 C-6.0825 4.763125 -6.165 5.52625 -6.25 6.3125 C-7 9 -7 9 -8.625 10.6875 C-11 12 -11 12 -14.3125 12.875 C-19.83938709 14.56116894 -23.78779029 17.18168543 -27 22 C-27.99 22 -28.98 22 -30 22 C-30.3125 19.75 -30.3125 19.75 -30 17 C-26.68161438 13.57456968 -22.50412622 11.60458309 -18.34765625 9.36328125 C-15.28163723 7.58284758 -12.51908253 5.5097372 -9.7265625 3.33203125 C-6.22098965 0.62750559 -4.39734364 -0.23769425 0 0 Z " fill="#FD9C16" transform="translate(30,0)"/>
<path d="M0 0 C0.99 0 1.98 0 3 0 C3 3.63 3 7.26 3 11 C-9.87 11 -22.74 11 -36 11 C-36 10.67 -36 10.34 -36 10 C-29.09950355 8.71618671 -22.71360477 7.92511476 -15.6875 8.3125 C-10.59517673 8.42616793 -8.04400607 7.95071605 -4.1875 4.5625 C-3.09155288 3.40579675 -2.01923074 2.22483925 -1 1 C-0.67 0.67 -0.34 0.34 0 0 Z " fill="#8DEF70" transform="translate(93,85)"/>
<path d="M0 0 C3.63 0 7.26 0 11 0 C11 0.99 11 1.98 11 3 C12.98 2.67 14.96 2.34 17 2 C17.33 3.65 17.66 5.3 18 7 C12.95785109 9.80119384 7.61573037 10.37367577 1.9375 9.5625 C1.298125 9.376875 0.65875 9.19125 0 9 C0 6.03 0 3.06 0 0 Z " fill="#F6D3C3" transform="translate(51,71)"/>
<path d="M0 0 C1.32 0.33 2.64 0.66 4 1 C4 1.66 4 2.32 4 3 C4.95712891 2.98259766 4.95712891 2.98259766 5.93359375 2.96484375 C6.75988281 2.95582031 7.58617187 2.94679688 8.4375 2.9375 C9.26121094 2.92589844 10.08492187 2.91429688 10.93359375 2.90234375 C13 3 13 3 14 4 C14 5.98 14 7.96 14 10 C8.06 10 2.12 10 -4 10 C-4 7.03 -4 4.06 -4 1 C-3.34 1.66 -2.68 2.32 -2 3 C-1.34 2.01 -0.68 1.02 0 0 Z " fill="#C47D79" transform="translate(25,70)"/>
<path d="M0 0 C0.99 0 1.98 0 3 0 C3.33 0.66 3.66 1.32 4 2 C4.66 2 5.32 2 6 2 C6.12375 2.61875 6.2475 3.2375 6.375 3.875 C6.87197356 6.19120832 6.87197356 6.19120832 9 8 C8.45730469 8.39832031 7.91460937 8.79664062 7.35546875 9.20703125 C6.64003906 9.73683594 5.92460938 10.26664063 5.1875 10.8125 C4.12595703 11.59560547 4.12595703 11.59560547 3.04296875 12.39453125 C0.98937734 13.89353174 0.98937734 13.89353174 -0.40625 15.6875 C-2.77528896 17.63847326 -4.67932221 17.29367098 -7.6875 17.1875 C-9.17830078 17.14689453 -9.17830078 17.14689453 -10.69921875 17.10546875 C-11.45847656 17.07066406 -12.21773437 17.03585938 -13 17 C-10.17446016 12.76169024 -7.87819112 13.02284652 -3 12 C-3 11.34 -3 10.68 -3 10 C-2.34 10 -1.68 10 -1 10 C-0.67 6.7 -0.34 3.4 0 0 Z " fill="#C7F9BC" transform="translate(69,71)"/>
<path d="M0 0 C0.99 0 1.98 0 3 0 C3 14.85 3 29.7 3 45 C1.35 45 -0.3 45 -2 45 C-2 44.01 -2 43.02 -2 42 C-0.515 41.505 -0.515 41.505 1 41 C1 28.46 1 15.92 1 3 C-0.32 2.67 -1.64 2.34 -3 2 C-2.01 2 -1.02 2 0 2 C0 1.34 0 0.68 0 0 Z " fill="#CF0F17" transform="translate(63,19)"/>
<path d="M0 0 C1.21236328 0.04060547 1.21236328 0.04060547 2.44921875 0.08203125 C3.06410156 0.11683594 3.67898437 0.15164063 4.3125 0.1875 C4.003125 0.950625 3.69375 1.71375 3.375 2.5 C2.63356407 4.37539677 1.95021783 6.27434652 1.3125 8.1875 C-0.0075 8.1875 -1.3275 8.1875 -2.6875 8.1875 C-2.6875 7.5275 -2.6875 6.8675 -2.6875 6.1875 C-4.14813143 6.97491859 -5.60593173 7.7675905 -7.0625 8.5625 C-7.87460937 9.00335938 -8.68671875 9.44421875 -9.5234375 9.8984375 C-11.79564302 11.1318893 -11.79564302 11.1318893 -13.6875 13.1875 C-17.3125 13.3125 -17.3125 13.3125 -20.6875 13.1875 C-20.6875 12.8575 -20.6875 12.5275 -20.6875 12.1875 C-19.57375 11.89875 -18.46 11.61 -17.3125 11.3125 C-13.68458908 10.49508671 -13.68458908 10.49508671 -11.6875 8.1875 C-11.543125 7.506875 -11.39875 6.82625 -11.25 6.125 C-11.064375 5.485625 -10.87875 4.84625 -10.6875 4.1875 C-9.6975 3.8575 -8.7075 3.5275 -7.6875 3.1875 C-6.99720703 2.41986328 -6.99720703 2.41986328 -6.29296875 1.63671875 C-4.13550101 -0.31077646 -2.85541604 -0.12414852 0 0 Z " fill="#FDB259" transform="translate(34.6875,-0.1875)"/>
<path d="M0 0 C0.495 1.98 0.495 1.98 1 4 C0.319375 4.37125 -0.36125 4.7425 -1.0625 5.125 C-3.9006031 6.7568416 -3.9006031 6.7568416 -5.3984375 8.53515625 C-8.10231971 11.43805518 -9.93859166 12.88672717 -13.96484375 13.31640625 C-16.3107958 13.27072333 -18.65623619 13.18925173 -21 13.078125 C-25.5165257 12.90020126 -29.90040782 13.42693655 -34.375 14 C-35.50881104 14.14356934 -35.50881104 14.14356934 -36.66552734 14.29003906 C-38.44456398 14.51999098 -40.2224299 14.75897355 -42 15 C-40.90161133 13.53027344 -40.90161133 13.53027344 -39 12 C-36.0925293 11.58691406 -36.0925293 11.58691406 -32.57421875 11.515625 C-30.66672852 11.44214844 -30.66672852 11.44214844 -28.72070312 11.3671875 C-26.04318073 11.28252791 -23.36826609 11.22679901 -20.68945312 11.1796875 C-13.8698219 11.10861772 -13.8698219 11.10861772 -7.828125 8.42944336 C-6.35312401 6.68779717 -5.19012444 4.94077049 -4 3 C-1.625 1.0625 -1.625 1.0625 0 0 Z " fill="#96EF7D" transform="translate(95,81)"/>
<path d="M0 0 C2.97 0.495 2.97 0.495 6 1 C7.0725 0.979375 8.145 0.95875 9.25 0.9375 C12 1 12 1 14 3 C8.06 3.495 8.06 3.495 2 4 C2 18.19 2 32.38 2 47 C1.67 47 1.34 47 1 47 C0.67 31.49 0.34 15.98 0 0 Z " fill="#FEADA2" transform="translate(28,16)"/>
<path d="M0 0 C0.66 0.66 1.32 1.32 2 2 C-0.15398544 4.42825067 -1.77221105 5.42512651 -4.875 6.3125 C-9.28192822 7.85129943 -11.21448238 10.23578701 -14 14 C-15.62098197 15.71949468 -17.30443758 17.35288222 -19 19 C-19.3125 16.3125 -19.3125 16.3125 -19 13 C-16.6875 10.3125 -16.6875 10.3125 -14 8 C-13.2265625 7.1028125 -13.2265625 7.1028125 -12.4375 6.1875 C-11 5 -11 5 -7 5 C-7 4.34 -7 3.68 -7 3 C-5.5459375 2.5359375 -5.5459375 2.5359375 -4.0625 2.0625 C-1.15934208 1.30476658 -1.15934208 1.30476658 0 0 Z " fill="#FDCEAA" transform="translate(19,19)"/>
<path d="M0 0 C-0.99 0.495 -0.99 0.495 -2 1 C-2.33 1.99 -2.66 2.98 -3 4 C-3.99 4 -4.98 4 -6 4 C-6.33 4.99 -6.66 5.98 -7 7 C-11.25053721 9.54680948 -16.07967365 11.36511918 -21 12 C-18.73641408 9.57008029 -16.34628731 7.80265485 -13.5625 6 C-11.26167134 4.50504534 -9.03748373 3.0297237 -6.88671875 1.32421875 C-4.47547868 -0.36814229 -2.8812483 -0.24010403 0 0 Z " fill="#FD990E" transform="translate(30,0)"/>
<path d="M0 0 C1.99954746 -0.04254356 4.00041636 -0.04080783 6 0 C7 1 7 1 7.0625 4.0625 C7.041875 5.031875 7.02125 6.00125 7 7 C3.7 7 0.4 7 -3 7 C-3 5.35 -3 3.7 -3 2 C-2.01 1.67 -1.02 1.34 0 1 C0 0.67 0 0.34 0 0 Z " fill="#E6B2AA" transform="translate(32,73)"/>
<path d="M0 0 C0.7425 0.2475 1.485 0.495 2.25 0.75 C1.375 4.625 1.375 4.625 0.25 5.75 C-1.41617115 5.79063832 -3.08388095 5.792721 -4.75 5.75 C-5.41 7.07 -6.07 8.39 -6.75 9.75 C-8.4 9.75 -10.05 9.75 -11.75 9.75 C-10.10009475 7.73344913 -8.43337752 5.7381269 -6.75 3.75 C-6.09 2.945625 -5.43 2.14125 -4.75 1.3125 C-2.75 -0.25 -2.75 -0.25 0 0 Z " fill="#C0F7B4" transform="translate(52.75,86.25)"/>
<path d="M0 0 C2.64 0.66 5.28 1.32 8 2 C8 3.98 8 5.96 8 8 C7.67 7.34 7.34 6.68 7 6 C6.34 6 5.68 6 5 6 C5 6.66 5 7.32 5 8 C3.68 8.33 2.36 8.66 1 9 C-1.125 2.25 -1.125 2.25 0 0 Z " fill="#C87C79" transform="translate(41,71)"/>
<path d="M0 0 C-0.33 0.66 -0.66 1.32 -1 2 C-9.25 2 -17.5 2 -26 2 C-26 1.67 -26 1.34 -26 1 C-17.06566653 -0.76931972 -9.04274067 -1.09519281 0 0 Z " fill="#8DEB6D" transform="translate(83,94)"/>
<path d="M0 0 C0.66 0 1.32 0 2 0 C2.33 0.66 2.66 1.32 3 2 C3.66 2 4.32 2 5 2 C5.12375 2.61875 5.2475 3.2375 5.375 3.875 C5.87197356 6.19120832 5.87197356 6.19120832 8 8 C6 10 6 10 3.4375 10.1875 C1 10 1 10 0 9 C-0.07179964 7.48071962 -0.08392007 5.95832518 -0.0625 4.4375 C-0.05347656 3.61121094 -0.04445313 2.78492187 -0.03515625 1.93359375 C-0.02355469 1.29550781 -0.01195313 0.65742187 0 0 Z " fill="#C78E7C" transform="translate(70,71)"/>
<path d="M0 0 C0 4 0 4 -2.75 6.8125 C-6 9 -6 9 -8.375 8.8125 C-8.91125 8.544375 -9.4475 8.27625 -10 8 C-9.34 6.35 -8.68 4.7 -8 3 C-7.01 3 -6.02 3 -5 3 C-5 2.34 -5 1.68 -5 1 C-3 0 -3 0 0 0 Z " fill="#BCF8AF" transform="translate(92,76)"/>
<path d="M0 0 C2.97 0 5.94 0 9 0 C3.375 6.875 3.375 6.875 0 8 C0 5.36 0 2.72 0 0 Z " fill="#FD6902" transform="translate(0,0)"/>
<path d="M0 0 C0.99 0 1.98 0 3 0 C1.64199529 2.96530497 0.07571737 5.29131271 -2.0625 7.75 C-2.85333984 8.67039062 -2.85333984 8.67039062 -3.66015625 9.609375 C-4.10230469 10.06828125 -4.54445313 10.5271875 -5 11 C-5.33 11 -5.66 11 -6 11 C-6.3125 7.6875 -6.3125 7.6875 -6 4 C-3.5625 2.125 -3.5625 2.125 -1 1 C-0.67 0.67 -0.34 0.34 0 0 Z " fill="#FCC080" transform="translate(6,20)"/>
<path d="M0 0 C0 2.31 0 4.62 0 7 C-2.64 7 -5.28 7 -8 7 C-6.76759083 3.3027725 -4.20634615 0 0 0 Z " fill="#79E954" transform="translate(96,89)"/>
<path d="M0 0 C0.33 0.66 0.66 1.32 1 2 C1.66 2.33 2.32 2.66 3 3 C2.34 3 1.68 3 1 3 C1 5.97 1 8.94 1 12 C-0.98 12 -2.96 12 -5 12 C-4.67 11.01 -4.34 10.02 -4 9 C-3.34 9 -2.68 9 -2 9 C-1.67 7.68 -1.34 6.36 -1 5 C-1.99 4.67 -2.98 4.34 -4 4 C-3.34 4 -2.68 4 -2 4 C-2 3.34 -2 2.68 -2 2 C-1.34 2 -0.68 2 0 2 C0 1.34 0 0.68 0 0 Z " fill="#F4BCB6" transform="translate(50,68)"/>
<path d="M0 0 C0 0.99 0 1.98 0 3 C-3.15583818 6.15583818 -6.77963311 6.86954458 -11 8 C-12.35350594 8.62469505 -13.69934483 9.2716331 -15 10 C-11.6468495 4.75159053 -7.56354845 3.19104997 -2 1 C-1.34 0.67 -0.68 0.34 0 0 Z " fill="#FEA637" transform="translate(23,6)"/>
<path d="M0 0 C0.33 0.66 0.66 1.32 1 2 C3.02463255 2.65213292 3.02463255 2.65213292 5 3 C5 4.65 5 6.3 5 8 C3.35 8.33 1.7 8.66 0 9 C0 6.03 0 3.06 0 0 Z " fill="#BC645C" transform="translate(51,71)"/>
<path d="M0 0 C-1.56204726 4.21752761 -4.45134252 6.37399346 -8 9 C-10.375 9.8125 -10.375 9.8125 -12 10 C-11.25 8.0625 -11.25 8.0625 -10 6 C-8.67405895 5.63837971 -7.34061543 5.30271961 -6 5 C-5.67 4.01 -5.34 3.02 -5 2 C-2 0 -2 0 0 0 Z " fill="#A5F392" transform="translate(96,79)"/>
<path d="M0 0 C2.475 0.495 2.475 0.495 5 1 C4.67 2.65 4.34 4.3 4 6 C2.68 6 1.36 6 0 6 C0 4.02 0 2.04 0 0 Z " fill="#C0796D" transform="translate(64,73)"/>
<path d="M0 0 C1.65 0 3.3 0 5 0 C3.02 2.97 3.02 2.97 1 6 C0.34 5.01 -0.32 4.02 -1 3 C-0.67 2.01 -0.34 1.02 0 0 Z M2 5 C2.33 5.66 2.66 6.32 3 7 C3.99 7.33 4.98 7.66 6 8 C3.36 8 0.72 8 -2 8 C0 6 0 6 2 5 Z " fill="#FEDDC3" transform="translate(53,8)"/>
<path d="M0 0 C-0.66 1.32 -1.32 2.64 -2 4 C-2.721875 3.95875 -3.44375 3.9175 -4.1875 3.875 C-7.20729369 4.00921305 -9.26935729 4.75170619 -12 6 C-12 5.34 -12 4.68 -12 4 C-11.01 3.67 -10.02 3.34 -9 3 C-8.566875 2.484375 -8.13375 1.96875 -7.6875 1.4375 C-5.21416874 -0.66941181 -3.1362632 -0.20908421 0 0 Z " fill="#FDA836" transform="translate(36,0)"/>
<path d="M0 0 C2.0625 0.4375 2.0625 0.4375 4 1 C4 2.65 4 4.3 4 6 C2.68 6 1.36 6 0 6 C-0.38218767 4.34385343 -0.71395102 2.67542976 -1 1 C-0.67 0.67 -0.34 0.34 0 0 Z " fill="#BD6B62" transform="translate(58,73)"/>
<path d="M0 0 C1.10844919 3.32534757 0.84454356 5.62182575 0 9 C-2.31 9.33 -4.62 9.66 -7 10 C-7 9.34 -7 8.68 -7 8 C-5.68 8 -4.36 8 -3 8 C-2.87625 7.4225 -2.7525 6.845 -2.625 6.25 C-1.99351176 3.97664233 -1.11141809 2.0746471 0 0 Z " fill="#FDB86E" transform="translate(39,0)"/>
<path d="M0 0 C0.99 0.33 1.98 0.66 3 1 C-0.0229455 4.45479486 -1.63400704 5.86226643 -6.29296875 6.33203125 C-9.54122796 6.31431991 -12.75921387 6.21637296 -16 6 C-16 5.67 -16 5.34 -16 5 C-14.77023438 4.96132812 -14.77023438 4.96132812 -13.515625 4.921875 C-11.89914063 4.83679688 -11.89914063 4.83679688 -10.25 4.75 C-9.18265625 4.70359375 -8.1153125 4.6571875 -7.015625 4.609375 C-3.47594492 3.89410286 -2.26118038 2.74415095 0 0 Z " fill="#B5F6AB" transform="translate(71,83)"/>
<path d="M0 0 C0.57234375 0.23589844 1.1446875 0.47179687 1.734375 0.71484375 C1.24066406 1.05257812 0.74695313 1.3903125 0.23828125 1.73828125 C-0.40238281 2.18429688 -1.04304688 2.6303125 -1.703125 3.08984375 C-2.34121094 3.53070313 -2.97929688 3.9715625 -3.63671875 4.42578125 C-5.40303428 5.63645228 -5.40303428 5.63645228 -6.265625 7.71484375 C-7.585625 7.38484375 -8.905625 7.05484375 -10.265625 6.71484375 C-9.03009224 5.51229851 -7.77660161 4.32818143 -6.515625 3.15234375 C-5.81953125 2.49105469 -5.1234375 1.82976562 -4.40625 1.1484375 C-2.265625 -0.28515625 -2.265625 -0.28515625 0 0 Z " fill="#87EC63" transform="translate(94.265625,88.28515625)"/>
<path d="M0 0 C2.31 0 4.62 0 7 0 C6.67 2.97 6.34 5.94 6 9 C5.67 9 5.34 9 5 9 C4.67 7.02 4.34 5.04 4 3 C2.68 2.67 1.36 2.34 0 2 C0 1.34 0 0.68 0 0 Z " fill="#FCD9D5" transform="translate(34,71)"/>
<path d="M0 0 C0 0.66 0 1.32 0 2 C-2.97 2 -5.94 2 -9 2 C-9 1.34 -9 0.68 -9 0 C-5.67465243 -1.10844919 -3.37817425 -0.84454356 0 0 Z " fill="#CFF0CD" transform="translate(17,94)"/>
<path d="M0 0 C0.33 0 0.66 0 1 0 C1.2493357 1.60115576 1.47378648 3.20620159 1.6875 4.8125 C1.81511719 5.70582031 1.94273438 6.59914063 2.07421875 7.51953125 C2 10 2 10 0.51953125 11.82421875 C-0.23263672 12.40623047 -0.23263672 12.40623047 -1 13 C-1.66 12.67 -2.32 12.34 -3 12 C-3 11.34 -3 10.68 -3 10 C-2.34 10 -1.68 10 -1 10 C-0.67 6.7 -0.34 3.4 0 0 Z " fill="#E1E2C3" transform="translate(69,71)"/>
<path d="M0 0 C0.66 0.33 1.32 0.66 2 1 C-0.33333333 3.33333333 -2.66666667 5.66666667 -5 8 C-5.99 8 -6.98 8 -8 8 C-8 7.34 -8 6.68 -8 6 C-7.01 5.67 -6.02 5.34 -5 5 C-3.29413425 3.37347684 -1.6222454 1.70993434 0 0 Z " fill="#FDAE4F" transform="translate(8,16)"/>
<path d="M0 0 C-2.3125 2.5 -2.3125 2.5 -5 5 C-5.99 5 -6.98 5 -8 5 C-8 3.68 -8 2.36 -8 1 C-3.375 -1.125 -3.375 -1.125 0 0 Z " fill="#FEA432" transform="translate(8,17)"/>
<path d="M0 0 C-1.39195915 2.7839183 -3.15575779 2.97898997 -6 4 C-6 4.66 -6 5.32 -6 6 C-7.65 6.33 -9.3 6.66 -11 7 C-4.18421053 0 -4.18421053 0 0 0 Z " fill="#FBB96F" transform="translate(32,6)"/>
<path d="M0 0 C1.98 0.495 1.98 0.495 4 1 C3.67 2.32 3.34 3.64 3 5 C1.68 4.67 0.36 4.34 -1 4 C-0.67 2.68 -0.34 1.36 0 0 Z " fill="#C9B29E" transform="translate(75,67)"/>
<path d="M0 0 C0.33 0 0.66 0 1 0 C1 1.98 1 3.96 1 6 C-0.65 5.67 -2.3 5.34 -4 5 C-3.67 4.01 -3.34 3.02 -3 2 C-2.01 2 -1.02 2 0 2 C0 1.34 0 0.68 0 0 Z " fill="#BF6257" transform="translate(38,74)"/>
<path d="M0 0 C0.66 0.33 1.32 0.66 2 1 C-3.0940919 6.88183807 -3.0940919 6.88183807 -6.875 7.375 C-7.57625 7.25125 -8.2775 7.1275 -9 7 C-8.1646875 6.38125 -8.1646875 6.38125 -7.3125 5.75 C-4.83804044 3.87743601 -2.4164771 1.94660656 0 0 Z " fill="#BEF6B5" transform="translate(71,81)"/>
<path d="M0 0 C-1 3 -1 3 -4 5 C-6.1875 4.625 -6.1875 4.625 -8 4 C-3.375 0 -3.375 0 0 0 Z " fill="#FD9D1D" transform="translate(24,4)"/>
<path d="M0 0 C1.65 0 3.3 0 5 0 C4.34 1.32 3.68 2.64 3 4 C1.68 4 0.36 4 -1 4 C-0.67 2.68 -0.34 1.36 0 0 Z " fill="#FDC187" transform="translate(49,0)"/>
<path d="M0 0 C0.66 0.33 1.32 0.66 2 1 C1.0479279 2.00596297 0.08812654 3.00461563 -0.875 4 C-1.40867187 4.556875 -1.94234375 5.11375 -2.4921875 5.6875 C-4 7 -4 7 -6 7 C-6 6.01 -6 5.02 -6 4 C-3.5625 2.375 -3.5625 2.375 -1 1 C-0.67 0.67 -0.34 0.34 0 0 Z " fill="#FCB86A" transform="translate(6,20)"/>
<path d="M0 0 C1.98 0 3.96 0 6 0 C5.34 0.61875 4.68 1.2375 4 1.875 C1.7715451 3.75637427 1.7715451 3.75637427 2 6 C1.34 6 0.68 6 0 6 C0 4.02 0 2.04 0 0 Z " fill="#F85902" transform="translate(0,0)"/>
</svg>
