<?xml version="1.0" encoding="UTF-8"?>
<svg version="1.1" xmlns="http://www.w3.org/2000/svg" width="480" height="480">
<path d="M0 0 C1.51778801 -0.01210762 1.51778801 -0.01210762 3.0662384 -0.02445984 C5.2104015 -0.03826578 7.35458624 -0.04900348 9.4987793 -0.05688477 C11.65607304 -0.06831776 13.81334049 -0.08862875 15.97045898 -0.1184082 C34.24059841 -0.3701095 50.77302815 1.44813647 67.89453125 8.11328125 C68.82346191 8.46712891 69.75239258 8.82097656 70.70947266 9.18554688 C72.53274193 9.88477873 74.35354829 10.59047924 76.17138672 11.30371094 C78.1807436 12.08270812 80.20949172 12.81145303 82.2421875 13.52734375 C100.14726571 20.27166239 116.75490744 33.1741927 130.58203125 46.23828125 C131.53851563 47.12644531 132.495 48.01460937 133.48046875 48.9296875 C149.12618306 63.98375715 160.36725379 82.2393882 170.58203125 101.23828125 C171.06422119 102.09885132 171.06422119 102.09885132 171.55615234 102.97680664 C175.11131852 109.61270145 177.29168486 116.78226817 179.58203125 123.92578125 C179.80269257 124.60892395 180.02335388 125.29206665 180.2507019 125.99591064 C183.97445357 137.58772854 186.91930314 149.15670643 188.58203125 161.23828125 C188.68080566 161.88990234 188.77958008 162.54152344 188.88134766 163.21289062 C189.93802197 171.08821111 189.82585631 179.05672513 189.83203125 186.98828125 C189.83270599 187.76695557 189.83338074 188.54562988 189.83407593 189.34790039 C189.81689054 201.85629234 189.21943502 213.97055605 186.58203125 226.23828125 C186.42105957 226.99818359 186.26008789 227.75808594 186.09423828 228.54101562 C181.58164008 249.01893484 174.27888985 269.18956833 163.58203125 287.23828125 C163.18371094 287.92212891 162.78539062 288.60597656 162.375 289.31054688 C156.86838028 298.70676306 150.79265599 307.07760798 143.58203125 315.23828125 C142.94265625 315.99882812 142.30328125 316.759375 141.64453125 317.54296875 C138.41311209 321.36585302 135.05123968 324.69759598 131.19140625 327.8828125 C129.40184104 329.35092118 129.40184104 329.35092118 127.20703125 331.61328125 C98.79520735 360.02510515 57.5089676 375.42976576 17.70898438 375.56787109 C16.24999388 375.56405067 14.79100728 375.55831878 13.33203125 375.55078125 C12.5733374 375.5486261 11.81464355 375.54647095 11.03295898 375.54425049 C-19.6846311 375.40491795 -50.99737044 368.39585147 -76.41796875 350.23828125 C-77.74208843 349.34297633 -79.06774446 348.4499414 -80.39453125 347.55859375 C-89.82889572 341.14958615 -98.28365398 334.21863422 -106.41796875 326.23828125 C-107.24941406 325.44550781 -108.08085938 324.65273438 -108.9375 323.8359375 C-114.27397713 318.66310021 -118.99376052 313.20793208 -123.41796875 307.23828125 C-124.12179688 306.29178711 -124.12179688 306.29178711 -124.83984375 305.32617188 C-140.12422678 284.54172678 -151.4188894 261.57076054 -157.10546875 236.36328125 C-157.54729492 234.49349609 -157.54729492 234.49349609 -157.99804688 232.5859375 C-161.43981504 217.62778104 -162.83088314 203.09540797 -162.79296875 187.80078125 C-162.79242493 186.96956757 -162.7918811 186.13835388 -162.7913208 185.2819519 C-162.74933889 171.26217678 -161.61868229 157.92417431 -158.41796875 144.23828125 C-158.19834473 143.25843262 -157.9787207 142.27858398 -157.75244141 141.26904297 C-154.87621092 128.61810703 -151.15034412 116.87224245 -145.41796875 105.23828125 C-144.74726587 103.8438125 -144.07669611 102.44927972 -143.40625 101.0546875 C-137.72370206 89.3617002 -131.30716756 78.60108785 -123.41796875 68.23828125 C-122.45310547 66.96210938 -122.45310547 66.96210938 -121.46875 65.66015625 C-109.72249459 50.7144446 -95.50655164 36.87019034 -79.23828125 26.96875 C-77.38885759 25.83399282 -75.56867426 24.64982349 -73.78515625 23.4140625 C-56.9127403 12.08149974 -36.30068493 5.026572 -16.41796875 1.23828125 C-15.56009766 1.06159912 -14.70222656 0.88491699 -13.81835938 0.70288086 C-9.20602147 0.07269138 -4.65062261 0.03580876 0 0 Z " fill="#FDFDFE" transform="translate(229.41796875,45.76171875)"/>
<path d="M0 0 C1.65 0.33 3.3 0.66 5 1 C5.391875 2.175625 5.78375 3.35125 6.1875 4.5625 C6.45691406 5.36816406 6.72632813 6.17382812 7.00390625 7.00390625 C7.76778461 9.30153253 8.52470452 11.60103667 9.27734375 13.90234375 C9.72655661 15.2682311 10.17577538 16.63411652 10.625 18 C10.84309326 18.6710376 11.06118652 19.3420752 11.28588867 20.03344727 C12.17849203 23.27454862 12.17849203 23.27454862 14 26 C14.23187012 25.31897217 14.46374023 24.63794434 14.70263672 23.9362793 C15.75561555 20.85180381 16.81522553 17.76964687 17.875 14.6875 C18.23980469 13.61564453 18.60460937 12.54378906 18.98046875 11.43945312 C19.33496094 10.41142578 19.68945312 9.38339844 20.0546875 8.32421875 C20.37937012 7.37635498 20.70405273 6.42849121 21.03857422 5.4519043 C22 3 22 3 24 0 C25.32 0.33 26.64 0.66 28 1 C30.79257875 11.31627393 32.8068784 21.36237902 34 32 C34.20606099 33.64611938 34.41389275 35.29202017 34.625 36.9375 C34.74875 37.948125 34.8725 38.95875 35 40 C35.66 40 36.32 40 37 40 C37.21390381 39.1793103 37.21390381 39.1793103 37.43212891 38.34204102 C39.49998561 30.92656509 42.39156701 23.93249698 45.50585938 16.91040039 C46.38401685 14.91703225 47.23470194 12.91318952 48.0859375 10.90820312 C48.64678795 9.63468894 49.20922974 8.3618741 49.7734375 7.08984375 C50.27278809 5.94378662 50.77213867 4.79772949 51.28662109 3.61694336 C53 1 53 1 55.70166016 0.11938477 C56.4601123 0.07998779 57.21856445 0.04059082 58 0 C64.83521612 13.15203102 64.83521612 13.15203102 67 19.4375 C69.53148119 26.47818205 72.83599139 33.21998155 76 40 C76.33 26.8 76.66 13.6 77 0 C81.00125 -0.0825 85.0025 -0.165 89.125 -0.25 C90.37555176 -0.28641602 91.62610352 -0.32283203 92.91455078 -0.36035156 C99.20802034 -0.42321528 103.34113638 -0.45425137 108 4 C111.57154607 9.14392485 111.76555872 15.97367882 111 22 C110.19125078 24.48202348 109.15363802 26.64465572 108 29 C108 32.40037669 108.48956196 32.9768533 110.5 35.5625 C113 38.79166667 113 38.79166667 113 41 C113.66 41 114.32 41 115 41 C115 27.47 115 13.94 115 0 C117.31 0 119.62 0 122 0 C122.33 5.61 122.66 11.22 123 17 C124.07121094 15.85660156 125.14242187 14.71320313 126.24609375 13.53515625 C127.64322045 12.04426266 129.04035634 10.55337769 130.4375 9.0625 C131.14455078 8.30775391 131.85160156 7.55300781 132.58007812 6.77539062 C133.25361328 6.05673828 133.92714844 5.33808594 134.62109375 4.59765625 C135.2442749 3.93258057 135.86745605 3.26750488 136.50952148 2.58227539 C138.93977154 0.002349 138.93977154 0.002349 141.50390625 -0.09765625 C143.01791016 -0.08025391 143.01791016 -0.08025391 144.5625 -0.0625 C145.57441406 -0.05347656 146.58632813 -0.04445312 147.62890625 -0.03515625 C148.41136719 -0.02355469 149.19382812 -0.01195312 150 0 C150 0.66 150 1.32 150 2 C148.6015625 3.33984375 148.6015625 3.33984375 146.625 4.9375 C141.98558978 8.84786005 138.07111391 13.27424515 134.1015625 17.83984375 C133.06128906 18.90912109 133.06128906 18.90912109 132 20 C131.34 20 130.68 20 130 20 C131.9853675 23.56217687 134.08322453 26.30578454 137.01171875 29.13671875 C137.76904297 29.87857422 138.52636719 30.62042969 139.30664062 31.38476562 C140.09232422 32.14466797 140.87800781 32.90457031 141.6875 33.6875 C143.25840323 35.20760604 144.82505782 36.7321193 146.38671875 38.26171875 C147.07983154 38.93162842 147.77294434 39.60153809 148.48706055 40.29174805 C150 42 150 42 150 44 C140.675169 45.21408288 140.675169 45.21408288 137.02734375 42.5703125 C135.2304784 40.45485401 133.62712 38.24851461 132 36 C130.37281642 34.15009403 128.72658782 32.31678017 127.0625 30.5 C125.721875 29.015 124.38125 27.53 123 26 C122.67 31.94 122.34 37.88 122 44 C109.05151811 44.99603707 109.05151811 44.99603707 105 44 C102.65201333 41.5652116 101.70115032 39.39348678 100.40234375 36.29296875 C99.18779768 33.76167213 99.18779768 33.76167213 96.44140625 33.11328125 C93.32753633 32.79726511 93.32753633 32.79726511 89 33 C89 29.7 89 26.4 89 23 C89.92683594 22.93941406 90.85367188 22.87882812 91.80859375 22.81640625 C93.60490234 22.69072266 93.60490234 22.69072266 95.4375 22.5625 C97.22994141 22.44068359 97.22994141 22.44068359 99.05859375 22.31640625 C101.88570244 22.32343886 101.88570244 22.32343886 103 21 C103.0979057 19.50261876 103.12974864 18.00057108 103.125 16.5 C103.12757813 15.6853125 103.13015625 14.870625 103.1328125 14.03125 C103.2245178 12.00469623 103.2245178 12.00469623 102 11 C99.13944586 10.76284045 96.30272344 10.57809383 93.4375 10.4375 C90.653125 10.293125 87.86875 10.14875 85 10 C85 21.22 85 32.44 85 44 C79.39 44 73.78 44 68 44 C67.01 40.7 66.02 37.4 65 34 C60.71 34 56.42 34 52 34 C52 32.68 52 31.36 52 30 C52.66 30 53.32 30 54 30 C54.33 28.35 54.66 26.7 55 25 C56.65 25 58.3 25 60 25 C58.68 22.03 57.36 19.06 56 16 C53.19156642 19.29544518 51.97669036 22.53364192 50.625 26.625 C48.52397506 32.73010589 46.02260652 38.30022771 43 44 C38.38 44 33.76 44 29 44 C27.09617664 35.63973222 25.50670867 27.56162929 25 19 C24.34 19 23.68 19 23 19 C22.7525 20.19625 22.505 21.3925 22.25 22.625 C18.18942505 40.81057495 18.18942505 40.81057495 15 44 C12.99511719 43.91162109 12.99511719 43.91162109 11 43 C9.90332031 41.00634766 9.90332031 41.00634766 9.078125 38.4140625 C8.77519531 37.48335938 8.47226563 36.55265625 8.16015625 35.59375 C7.85980469 34.6140625 7.55945313 33.634375 7.25 32.625 C6.93417969 31.65304687 6.61835938 30.68109375 6.29296875 29.6796875 C4 22.49306683 4 22.49306683 4 19 C3.34 19 2.68 19 2 19 C1.96261719 19.63164062 1.92523438 20.26328125 1.88671875 20.9140625 C1.3080375 28.78866613 -0.21650786 36.31640179 -2 44 C-4.31 44 -6.62 44 -9 44 C-8.36740822 38.67101716 -7.6033698 33.38913756 -6.66015625 28.10546875 C-6.46962929 27.03441643 -6.46962929 27.03441643 -6.2752533 25.94172668 C-6.00837632 24.44831776 -5.74026186 22.95512947 -5.47094727 21.4621582 C-5.06062597 19.17706348 -4.6601901 16.89036255 -4.25976562 14.60351562 C-3.99800352 13.14572409 -3.73565467 11.68803775 -3.47265625 10.23046875 C-3.3548732 9.54921432 -3.23709015 8.8679599 -3.11573792 8.1660614 C-2.50377547 4.83939818 -1.90950879 2.86426319 0 0 Z " fill="#2C3692" transform="translate(240,240)"/>
<path d="M0 0 C2.31 0 4.62 0 7 0 C7 11.22 7 22.44 7 34 C13.27 34 19.54 34 26 34 C26 35.98 26 37.96 26 40 C26.66 40 27.32 40 28 40 C28.11859375 39.278125 28.2371875 38.55625 28.359375 37.8125 C29.01329531 34.94163034 29.97435583 32.6481727 31.25 30 C33.1788636 25.88803863 34.86954204 21.76241 36.4375 17.5 C38.75578801 11.33512583 41.68589729 5.68294588 45 0 C46.87719727 0.30371094 46.87719727 0.30371094 49 1 C50.51283047 3.41812266 51.73941709 5.68192383 52.9375 8.25 C53.28594971 8.97147217 53.63439941 9.69294434 53.9934082 10.4362793 C56.51246226 15.73534156 58.72477874 21.11762388 60.69921875 26.64453125 C62.59086608 31.52418607 64.80337283 36.25132322 67 41 C67.01981934 39.82904785 67.03963867 38.6580957 67.06005859 37.45166016 C67.13600081 33.11663926 67.2247352 28.78195905 67.31738281 24.44726562 C67.35571977 22.56940424 67.39056427 20.69146824 67.421875 18.81347656 C67.46742363 16.11756679 67.52543375 13.42217288 67.5859375 10.7265625 C67.59748871 9.88380768 67.60903992 9.04105286 67.62094116 8.17276001 C67.77225659 2.22774341 67.77225659 2.22774341 70 0 C72.86357124 0.17272334 74.44080446 0.39137281 76.4140625 2.5390625 C77.01347656 3.57160156 77.01347656 3.57160156 77.625 4.625 C80.90941085 9.97513242 84.6108204 14.94214114 88.39306641 19.94580078 C92 24.78540487 92 24.78540487 92 27 C92.66 27 93.32 27 94 27 C94 18.09 94 9.18 94 0 C95.98 0 97.96 0 100 0 C100 14.19 100 28.38 100 43 C98.35 43.33 96.7 43.66 95 44 C88.50921323 35.43968702 82.21933736 26.75963008 76 18 C75.67 26.58 75.34 35.16 75 44 C69.72 44 64.44 44 59 44 C57.68 41.03 56.36 38.06 55 35 C51.04 34.67 47.08 34.34 43 34 C43.4979837 30.26512223 43.87491756 28.18762365 46 25 C48.625 24.8125 48.625 24.8125 51 25 C50.505 24.0925 50.01 23.185 49.5 22.25 C48 19 48 19 48 15 C47.01 15 46.02 15 45 15 C44.88213135 15.70664795 44.7642627 16.4132959 44.64282227 17.14135742 C43.95584689 20.19634972 42.93300398 22.85478804 41.71484375 25.73828125 C41.10950806 27.18134644 41.10950806 27.18134644 40.49194336 28.65356445 C39.97897705 29.86101318 39.46601074 31.06846191 38.9375 32.3125 C37.308125 36.169375 35.67875 40.02625 34 44 C22.78 44 11.56 44 0 44 C0 29.48 0 14.96 0 0 Z " fill="#333B94" transform="translate(95,240)"/>
<path d="M0 0 C2.31 0 4.62 0 7 0 C7.495 8.415 7.495 8.415 8 17 C9.07121094 15.85660156 10.14242187 14.71320313 11.24609375 13.53515625 C12.64322045 12.04426266 14.04035634 10.55337769 15.4375 9.0625 C16.14455078 8.30775391 16.85160156 7.55300781 17.58007812 6.77539062 C18.25361328 6.05673828 18.92714844 5.33808594 19.62109375 4.59765625 C20.2442749 3.93258057 20.86745605 3.26750488 21.50952148 2.58227539 C23.93977154 0.002349 23.93977154 0.002349 26.50390625 -0.09765625 C28.01791016 -0.08025391 28.01791016 -0.08025391 29.5625 -0.0625 C30.57441406 -0.05347656 31.58632813 -0.04445312 32.62890625 -0.03515625 C33.41136719 -0.02355469 34.19382812 -0.01195312 35 0 C35 0.66 35 1.32 35 2 C33.6015625 3.33984375 33.6015625 3.33984375 31.625 4.9375 C26.98558978 8.84786005 23.07111391 13.27424515 19.1015625 17.83984375 C18.40804687 18.55269531 17.71453125 19.26554687 17 20 C16.34 20 15.68 20 15 20 C16.9853675 23.56217687 19.08322453 26.30578454 22.01171875 29.13671875 C22.76904297 29.87857422 23.52636719 30.62042969 24.30664062 31.38476562 C25.09232422 32.14466797 25.87800781 32.90457031 26.6875 33.6875 C28.25840323 35.20760604 29.82505782 36.7321193 31.38671875 38.26171875 C32.07983154 38.93162842 32.77294434 39.60153809 33.48706055 40.29174805 C35 42 35 42 35 44 C25.675169 45.21408288 25.675169 45.21408288 22.02734375 42.5703125 C20.2304784 40.45485401 18.62712 38.24851461 17 36 C15.37281642 34.15009403 13.72658782 32.31678017 12.0625 30.5 C10.721875 29.015 9.38125 27.53 8 26 C7.67 31.94 7.34 37.88 7 44 C-5.94848189 44.99603707 -5.94848189 44.99603707 -10 44 C-12.34798667 41.5652116 -13.29884968 39.39348678 -14.59765625 36.29296875 C-15.81220232 33.76167213 -15.81220232 33.76167213 -18.55859375 33.11328125 C-21.67246367 32.79726511 -21.67246367 32.79726511 -26 33 C-26 29.7 -26 26.4 -26 23 C-25.07316406 22.93941406 -24.14632813 22.87882812 -23.19140625 22.81640625 C-21.39509766 22.69072266 -21.39509766 22.69072266 -19.5625 22.5625 C-17.77005859 22.44068359 -17.77005859 22.44068359 -15.94140625 22.31640625 C-13.11429756 22.32343886 -13.11429756 22.32343886 -12 21 C-11.9020943 19.50261876 -11.87025136 18.00057108 -11.875 16.5 C-11.87242187 15.6853125 -11.86984375 14.870625 -11.8671875 14.03125 C-11.7754822 12.00469623 -11.7754822 12.00469623 -13 11 C-14.34015221 10.84417697 -15.68758903 10.74955858 -17.03515625 10.68359375 C-17.76355713 10.64548584 -18.49195801 10.60737793 -19.24243164 10.56811523 C-20.1730542 10.52501221 -21.10367676 10.48190918 -22.0625 10.4375 C-25.011875 10.293125 -27.96125 10.14875 -31 10 C-31 20.89 -31 31.78 -31 43 C-32.98 43 -34.96 43 -37 43 C-37 29.14 -37 15.28 -37 1 C-32.813125 0.9175 -28.62625 0.835 -24.3125 0.75 C-23.00063721 0.71358398 -21.68877441 0.67716797 -20.3371582 0.63964844 C-19.29390381 0.6296582 -18.25064941 0.61966797 -17.17578125 0.609375 C-16.11270752 0.58842773 -15.04963379 0.56748047 -13.9543457 0.54589844 C-10.25399293 1.11466599 -8.63886911 2.39134807 -6 5 C-3.55865568 10.81272457 -2.70271296 17.98815857 -4.67578125 24.08984375 C-5.41349506 25.74358134 -6.20347915 27.37376993 -7 29 C-7 32.40037669 -6.51043804 32.9768533 -4.5 35.5625 C-2 38.79166667 -2 38.79166667 -2 41 C-1.34 41 -0.68 41 0 41 C0 27.47 0 13.94 0 0 Z " fill="#283290" transform="translate(355,240)"/>
<path d="M0 0 C3.50625 -0.0825 7.0125 -0.165 10.625 -0.25 C11.71893066 -0.28641602 12.81286133 -0.32283203 13.93994141 -0.36035156 C19.98536096 -0.42911253 23.40086734 -0.02330629 28 4 C33.17456553 9.35299882 32.33688714 17.51326888 32.28515625 24.51171875 C31.79130279 30.55296727 29.76809244 34.91989124 25.875 39.5 C22.7684662 41.98522704 20.90967125 42.12017052 16.9921875 42.09765625 C16.1038623 42.09515869 15.21553711 42.09266113 14.30029297 42.09008789 C13.16994629 42.08098389 12.03959961 42.07187988 10.875 42.0625 C5.491875 42.0315625 5.491875 42.0315625 0 42 C0 28.14 0 14.28 0 0 Z " fill="#252E8F" transform="translate(199,241)"/>
<path d="M0 0 C2.37109375 0.0703125 2.37109375 0.0703125 5 1 C6.66015625 3.5546875 6.66015625 3.5546875 8.0625 6.875 C8.57039063 8.0609375 9.07828125 9.246875 9.6015625 10.46875 C10.77127831 13.42244579 11.88178647 16.37930007 12.9375 19.375 C15.52264519 26.42539597 18.82438471 33.1951101 22 40 C22.33 26.8 22.66 13.6 23 0 C31.25 0 39.5 0 48 0 C48 0.33 48 0.66 48 1 C40.08 1 32.16 1 24 1 C24 14.86 24 28.72 24 43 C25.98 43 27.96 43 30 43 C30 32.11 30 21.22 30 10 C30.33 10 30.66 10 31 10 C31 21.22 31 32.44 31 44 C25.39 44 19.78 44 14 44 C13.01 40.7 12.02 37.4 11 34 C6.71 34 2.42 34 -2 34 C-2 32.68 -2 31.36 -2 30 C-1.34 30 -0.68 30 0 30 C0.33 28.35 0.66 26.7 1 25 C2.65 25 4.3 25 6 25 C4.68 22.03 3.36 19.06 2 16 C-0.80843358 19.29544518 -2.02330964 22.53364192 -3.375 26.625 C-5.47602494 32.73010589 -7.97739348 38.30022771 -11 44 C-15.62 44 -20.24 44 -25 44 C-24.67 43.34 -24.34 42.68 -24 42 C-22.34385343 41.61781233 -20.67542976 41.28604898 -19 41 C-16.8463755 40.21275039 -16.8463755 40.21275039 -16.38134766 38.24438477 C-16.18589355 37.46377686 -15.99043945 36.68316895 -15.7890625 35.87890625 C-13.91913912 29.2753718 -11.11392541 23.13722125 -8.27441406 16.91040039 C-7.36367552 14.9126593 -6.46240948 12.9108426 -5.5625 10.90820312 C-1.15918395 1.15918395 -1.15918395 1.15918395 0 0 Z " fill="#3D4599" transform="translate(294,240)"/>
<path d="M0 0 C2.31 0 4.62 0 7 0 C7.495 8.415 7.495 8.415 8 17 C9.07121094 15.85660156 10.14242188 14.71320313 11.24609375 13.53515625 C12.64322045 12.04426266 14.04035634 10.55337769 15.4375 9.0625 C16.14455078 8.30775391 16.85160156 7.55300781 17.58007812 6.77539062 C18.25361328 6.05673828 18.92714844 5.33808594 19.62109375 4.59765625 C20.55586548 3.60004272 20.55586548 3.60004272 21.50952148 2.58227539 C23.93977154 0.002349 23.93977154 0.002349 26.50390625 -0.09765625 C28.01791016 -0.08025391 28.01791016 -0.08025391 29.5625 -0.0625 C30.57441406 -0.05347656 31.58632813 -0.04445312 32.62890625 -0.03515625 C33.41136719 -0.02355469 34.19382812 -0.01195312 35 0 C35 0.66 35 1.32 35 2 C33.6015625 3.33984375 33.6015625 3.33984375 31.625 4.9375 C26.98558978 8.84786005 23.07111391 13.27424515 19.1015625 17.83984375 C18.06128906 18.90912109 18.06128906 18.90912109 17 20 C16.34 20 15.68 20 15 20 C16.9853675 23.56217687 19.08322453 26.30578454 22.01171875 29.13671875 C22.76904297 29.87857422 23.52636719 30.62042969 24.30664062 31.38476562 C25.09232422 32.14466797 25.87800781 32.90457031 26.6875 33.6875 C28.25840323 35.20760604 29.82505782 36.7321193 31.38671875 38.26171875 C32.07983154 38.93162842 32.77294434 39.60153809 33.48706055 40.29174805 C35 42 35 42 35 44 C25.675169 45.21408288 25.675169 45.21408288 22.02734375 42.5703125 C20.2304784 40.45485401 18.62712 38.24851461 17 36 C15.37281642 34.15009403 13.72658782 32.31678017 12.0625 30.5 C10.721875 29.015 9.38125 27.53 8 26 C7.67 31.94 7.34 37.88 7 44 C1.39 44 -4.22 44 -10 44 C-10 43.67 -10 43.34 -10 43 C-8.72125 42.855625 -7.4425 42.71125 -6.125 42.5625 C-3.74307106 42.29357254 -2.15547309 42.07773654 0 41 C0 27.47 0 13.94 0 0 Z " fill="#303993" transform="translate(355,240)"/>
<path d="M0 0 C2.81410428 0.24749451 4.4648267 0.41751856 6.4140625 2.5390625 C7.01347656 3.57160156 7.01347656 3.57160156 7.625 4.625 C10.90941085 9.97513242 14.6108204 14.94214114 18.39306641 19.94580078 C22 24.78540487 22 24.78540487 22 27 C22.66 27 23.32 27 24 27 C24 18.09 24 9.18 24 0 C25.98 0 27.96 0 30 0 C30 14.19 30 28.38 30 43 C27.525 43.495 27.525 43.495 25 44 C21.01981728 38.75077352 17.04547846 33.50321896 13.24609375 28.12109375 C12.7979834 27.4863916 12.34987305 26.85168945 11.88818359 26.19775391 C11.01359989 24.9540089 10.14274208 23.70763441 9.27587891 22.45849609 C7.1098919 19.21895213 7.1098919 19.21895213 4 17 C4 25.58 4 34.16 4 43 C2.35 43 0.7 43 -1 43 C-1.02464574 37.03686834 -1.042834 31.07376605 -1.05493164 25.1105957 C-1.05997278 23.08031702 -1.06680557 21.05004198 -1.07543945 19.01977539 C-1.08751467 16.10822653 -1.09323034 13.1967255 -1.09765625 10.28515625 C-1.10281754 9.3716188 -1.10797882 8.45808136 -1.11329651 7.51686096 C-1.11349168 5.34424573 -1.06211805 3.17172704 -1 1 C-0.67 0.67 -0.34 0.34 0 0 Z " fill="#27318F" transform="translate(165,240)"/>
<path d="M0 0 C0 2.64 0 5.28 0 8 C8.58 8 17.16 8 26 8 C26 10 26 10 23.38671875 12.8125 C17.97845666 17.28830311 11.42163064 18.96277693 4.8125 21 C3.52890078 21.42197412 2.24569364 21.84514283 0.96289062 22.26953125 C-8.36820832 25.22034942 -8.36820832 25.22034942 -11.2512207 24.21484375 C-13.49773986 22.65422957 -15.25699851 21.11650181 -17 19 C-17 17.68 -17 16.36 -17 15 C-17.66 15 -18.32 15 -19 15 C-19.33 11.7 -19.66 8.4 -20 5 C-17.23058394 4.16169027 -14.45964931 3.32917966 -11.6875 2.5 C-10.50897461 2.14228516 -10.50897461 2.14228516 -9.30664062 1.77734375 C-8.54931641 1.55175781 -7.79199219 1.32617188 -7.01171875 1.09375 C-6.31522217 0.88427734 -5.61872559 0.67480469 -4.90112305 0.45898438 C-3 0 -3 0 0 0 Z " fill="#B2B5D4" transform="translate(235,201)"/>
<path d="M0 0 C2.31 0 4.62 0 7 0 C7 11.22 7 22.44 7 34 C13.27 34 19.54 34 26 34 C26 36.64 26 39.28 26 42 C28.64 41.67 31.28 41.34 34 41 C34 41.99 34 42.98 34 44 C22.78 44 11.56 44 0 44 C0 29.48 0 14.96 0 0 Z " fill="#293292" transform="translate(95,240)"/>
<path d="M0 0 C0.56993514 8.26405949 -1.51394597 15.1977858 -4 23 C-7.4374823 23.02901394 -10.87493312 23.04680335 -14.3125 23.0625 C-15.28896484 23.07087891 -16.26542969 23.07925781 -17.27148438 23.08789062 C-18.20927734 23.09111328 -19.14707031 23.09433594 -20.11328125 23.09765625 C-20.97735596 23.10289307 -21.84143066 23.10812988 -22.73168945 23.11352539 C-25 23 -25 23 -28 22 C-28.04254356 20.00045254 -28.04080783 17.99958364 -28 16 C-27.67 15.67 -27.34 15.34 -27 15 C-26.95875 13.88625 -26.9175 12.7725 -26.875 11.625 C-26.58625 10.42875 -26.2975 9.2325 -26 8 C-20.81297088 5.27680971 -15.26399039 3.82506549 -9.625 2.3125 C-8.80644531 2.08755859 -7.98789062 1.86261719 -7.14453125 1.63085938 C-1.16636588 0 -1.16636588 0 0 0 Z " fill="#B2B5D5" transform="translate(272,174)"/>
<path d="M0 0 C12.9323741 -0.60431655 12.9323741 -0.60431655 17.3125 1.875 C19.67494313 6.24989469 20.40582494 10.03991737 20 15 C19.04827694 17.94168947 17.83991487 20.50993853 16 23 C11.53794887 25.23102556 4.78092876 24.04346299 0 24 C0 16.08 0 8.16 0 0 Z " fill="#F3F3F8" transform="translate(205,250)"/>
<path d="M0 0 C3.375 1.1875 3.375 1.1875 5.3125 3.6875 C7.03671579 9.36726965 7.03671579 14.00773035 5.3125 19.6875 C3.375 22.1875 3.375 22.1875 0 23.4375 C-3.625 23.1875 -3.625 23.1875 -6.5625 21 C-9.87625517 16.31010065 -9.56194555 10.64158955 -8.625 5.1875 C-6.02848945 1.01734669 -4.89760599 0.25332445 0 0 Z " fill="#757575" transform="translate(213.625,299.8125)"/>
<path d="M0 0 C8 0 8 0 11 2.3125 C14.11149829 6.74242977 13.81553978 11.84014253 13 17 C11.5625 20.1875 11.5625 20.1875 9 22 C6.03 22 3.06 22 0 22 C0 14.74 0 7.48 0 0 Z " fill="#777777" transform="translate(276,300)"/>
<path d="M0 0 C0 2 0 2 -2.61328125 4.8125 C-8.02154334 9.28830311 -14.57836936 10.96277693 -21.1875 13 C-22.47109922 13.42197412 -23.75430636 13.84514283 -25.03710938 14.26953125 C-34.39416281 17.22855714 -34.39416281 17.22855714 -37.3918457 16.09765625 C-37.92253662 15.73542969 -38.45322754 15.37320313 -39 15 C-39 13.68 -39 12.36 -39 11 C-34.4140647 9.42174834 -29.82423802 7.8555955 -25.23046875 6.30029297 C-23.6697833 5.7700352 -22.11019216 5.23654476 -20.55175781 4.69970703 C-18.30556822 3.92659324 -16.05564045 3.16536618 -13.8046875 2.40625 C-13.1138205 2.16563843 -12.42295349 1.92502686 -11.71115112 1.67712402 C-7.67738752 0.33161323 -4.24781022 -0.25429068 0 0 Z " fill="#273090" transform="translate(261,209)"/>
<path d="M0 0 C2.64 0 5.28 0 8 0 C10.48855793 2.6440928 10.94416243 4.34390857 11.25 7.9375 C11 11 11 11 10.375 14 C9.93281986 17.53744112 10.67593466 19.72877974 12 23 C10.35 22.67 8.7 22.34 7 22 C6.67 20.02 6.34 18.04 6 16 C5.34 16 4.68 16 4 16 C4 18.31 4 20.62 4 23 C2.68 23 1.36 23 0 23 C0 15.41 0 7.82 0 0 Z " fill="#727272" transform="translate(192,300)"/>
<path d="M0 0 C1.875 1.25 1.875 1.25 3 3 C2.6875 5.1875 2.6875 5.1875 2 7 C-0.31 6.67 -2.62 6.34 -5 6 C-6.49297212 8.98594424 -6.11755228 11.70853624 -6 15 C-5.67 15.66 -5.34 16.32 -5 17 C-3.35 17 -1.7 17 0 17 C0.33 16.34 0.66 15.68 1 15 C-0.32 15 -1.64 15 -3 15 C-3 13.35 -3 11.7 -3 10 C-0.36 10 2.28 10 5 10 C4.65809072 18.00067705 4.65809072 18.00067705 2.3125 21.5625 C-0.7723408 23.48010374 -2.43220746 23.6689611 -6 23 C-8.7059824 20.32348384 -9.88945761 18.61598795 -10.56640625 14.84375 C-10.55588993 5.84177617 -10.55588993 5.84177617 -7.8125 1.6875 C-4.778272 -0.1330368 -3.45158242 -0.72664893 0 0 Z " fill="#848484" transform="translate(185,300)"/>
<path d="M0 0 C0.99 0 1.98 0 3 0 C4.32 2.64 5.64 5.28 7 8 C7.33 5.36 7.66 2.72 8 0 C9.32 0 10.64 0 12 0 C12 7.59 12 15.18 12 23 C11.01 23 10.02 23 9 23 C8.32880451 21.5437455 7.66318193 20.08492133 7 18.625 C6.62875 17.81289063 6.2575 17.00078125 5.875 16.1640625 C5 14 5 14 5 12 C4.34 12 3.68 12 3 12 C3 15.3 3 18.6 3 22 C2.01 22 1.02 22 0 22 C0 14.74 0 7.48 0 0 Z " fill="#7F7F7F" transform="translate(261,300)"/>
<path d="M0 0 C1.65 0 3.3 0 5 0 C5.67363372 2.72761511 6.33909444 5.456799 7 8.1875 C7.19078125 8.95642578 7.3815625 9.72535156 7.578125 10.51757812 C8.51623421 14.42078253 9.25957208 17.95229795 9 22 C8.01 22 7.02 22 6 22 C6 21.01 6 20.02 6 19 C3.69 19 1.38 19 -1 19 C-1 20.32 -1 21.64 -1 23 C-2.32 23 -3.64 23 -5 23 C-4.354523 15.09290669 -2.13002861 7.60866033 0 0 Z " fill="#7A7A7A" transform="translate(301,300)"/>
<path d="M0 0 C8 0 8 0 9.9765625 1.22265625 C11.92881741 4.61302261 11.50456559 8.22257651 11 12 C9.75 14.5625 9.75 14.5625 8 16 C6.68 16 5.36 16 4 16 C4 18.31 4 20.62 4 23 C2.68 23 1.36 23 0 23 C0 15.41 0 7.82 0 0 Z " fill="#818181" transform="translate(236,300)"/>
<path d="M0 0 C1.32 0 2.64 0 4 0 C4 5.94 4 11.88 4 18 C5.32 17.67 6.64 17.34 8 17 C8.33 11.39 8.66 5.78 9 0 C9.99 0 10.98 0 12 0 C12.05401695 2.91691525 12.09368066 5.83282724 12.125 8.75 C12.15013672 9.9875 12.15013672 9.9875 12.17578125 11.25 C12.18222656 12.04921875 12.18867188 12.8484375 12.1953125 13.671875 C12.20578613 14.4050293 12.21625977 15.13818359 12.22705078 15.89355469 C11.95838678 18.38606328 11.41610539 19.9285117 10 22 C6.375 22.75 6.375 22.75 3 23 C-0.60811072 18.35017753 -0.36022182 14.2987448 -0.1875 8.6875 C-0.17396484 7.85154297 -0.16042969 7.01558594 -0.14648438 6.15429688 C-0.11131217 4.10258502 -0.05751048 2.05120725 0 0 Z " fill="#787878" transform="translate(222,300)"/>
<path d="M0 0 C0 1.98 0 3.96 0 6 C-3.76875019 7.17347102 -7.54032084 8.33760333 -11.3125 9.5 C-12.9202832 10.00080078 -12.9202832 10.00080078 -14.56054688 10.51171875 C-15.58857422 10.82753906 -16.61660156 11.14335937 -17.67578125 11.46875 C-18.62364502 11.76201172 -19.57150879 12.05527344 -20.5480957 12.35742188 C-23 13 -23 13 -26 13 C-26 11.35 -26 9.7 -26 8 C-20.64529641 5.55234059 -15.3061915 3.83638524 -9.625 2.3125 C-8.80644531 2.08755859 -7.98789062 1.86261719 -7.14453125 1.63085938 C-1.16636588 0 -1.16636588 0 0 0 Z " fill="#293390" transform="translate(272,174)"/>
<path d="M0 0 C0 1.98 0 3.96 0 6 C-3.97836223 7.33574211 -7.95781967 8.66819064 -11.9375 10 C-13.07380859 10.3815625 -14.21011719 10.763125 -15.38085938 11.15625 C-16.46044922 11.5171875 -17.54003906 11.878125 -18.65234375 12.25 C-19.65257568 12.58515625 -20.65280762 12.9203125 -21.68334961 13.265625 C-24 14 -24 14 -25 14 C-25 12.02 -25 10.04 -25 8 C-21.02163777 6.66425789 -17.04218033 5.33180936 -13.0625 4 C-11.92619141 3.6184375 -10.78988281 3.236875 -9.61914062 2.84375 C-8.53955078 2.4828125 -7.45996094 2.121875 -6.34765625 1.75 C-4.84730835 1.24726563 -4.84730835 1.24726563 -3.31665039 0.734375 C-1 0 -1 0 0 0 Z " fill="#202A8E" transform="translate(272,166)"/>
<path d="M0 0 C-0.33 1.98 -0.66 3.96 -1 6 C-4.4133521 7.17652472 -7.83117595 8.33948174 -11.25 9.5 C-12.21808594 9.83386719 -13.18617188 10.16773438 -14.18359375 10.51171875 C-15.58544922 10.98544922 -15.58544922 10.98544922 -17.015625 11.46875 C-17.87446289 11.76201172 -18.73330078 12.05527344 -19.61816406 12.35742188 C-22 13 -22 13 -26 13 C-25.6875 10.2421875 -25.6875 10.2421875 -24 7 C-20.50036664 5.16456062 -16.79713028 4.17710159 -13 3.125 C-11.97648437 2.81820312 -10.95296875 2.51140625 -9.8984375 2.1953125 C-2.46965681 0 -2.46965681 0 0 0 Z " fill="#212A8E" transform="translate(271,182)"/>
<path d="M0 0 C0 1.98 0 3.96 0 6 C-3.24725579 7.00906461 -6.49821074 8.00565122 -9.75 9 C-10.67039062 9.28617188 -11.59078125 9.57234375 -12.5390625 9.8671875 C-13.42851562 10.13789063 -14.31796875 10.40859375 -15.234375 10.6875 C-16.45979004 11.06455078 -16.45979004 11.06455078 -17.70996094 11.44921875 C-20 12 -20 12 -24 12 C-24 10.35 -24 8.7 -24 7 C-21.6464689 6.20640264 -19.29221117 5.41508217 -16.9375 4.625 C-16.28072266 4.40328125 -15.62394531 4.1815625 -14.94726562 3.953125 C-3.14602482 0 -3.14602482 0 0 0 Z " fill="#2A3490" transform="translate(272,159)"/>
<path d="M0 0 C-4.93285521 2.63215594 -10.23582905 4.05581872 -15.5625 5.6875 C-16.61630859 6.02072266 -17.67011719 6.35394531 -18.75585938 6.69726562 C-20.27083008 7.16229492 -20.27083008 7.16229492 -21.81640625 7.63671875 C-22.73881104 7.92248779 -23.66121582 8.20825684 -24.61157227 8.50268555 C-27 9 -27 9 -30 8 C-30.33 6.35 -30.66 4.7 -31 3 C-20.26923644 -1.41743447 -11.33921722 -1.17082826 0 0 Z " fill="#202A8D" transform="translate(248,210)"/>
<path d="M0 0 C0 1.98 0 3.96 0 6 C-7.59 8.31 -15.18 10.62 -23 13 C-23 11.02 -23 9.04 -23 7 C-20.08416415 6.01834721 -17.1671912 5.04011699 -14.25 4.0625 C-13.425 3.78470703 -12.6 3.50691406 -11.75 3.22070312 C-10.95078125 2.95322266 -10.1515625 2.68574219 -9.328125 2.41015625 C-8.5949707 2.16402588 -7.86181641 1.91789551 -7.10644531 1.66430664 C-1.82910695 0 -1.82910695 0 0 0 Z " fill="#232C8F" transform="translate(237,177)"/>
<path d="M0 0 C0 1.98 0 3.96 0 6 C-2.89461219 6.9829057 -5.79058079 7.96143701 -8.6875 8.9375 C-9.50412109 9.21529297 -10.32074219 9.49308594 -11.16210938 9.77929688 C-15.0845344 11.09735873 -18.90130514 12.34053586 -23 13 C-22.67 11.02 -22.34 9.04 -22 7 C-18.52163871 5.83092237 -15.04218133 4.66514216 -11.5625 3.5 C-10.07266602 2.99919922 -10.07266602 2.99919922 -8.55273438 2.48828125 C-7.13637695 2.01455078 -7.13637695 2.01455078 -5.69140625 1.53125 C-4.81685791 1.23798828 -3.94230957 0.94472656 -3.04125977 0.64257812 C-1 0 -1 0 0 0 Z " fill="#252F90" transform="translate(238,169)"/>
<path d="M0 0 C0.33 1.65 0.66 3.3 1 5 C-3.74041755 6.82323752 -8.5057626 8.54631749 -13.3125 10.1875 C-14.31925781 10.53167969 -15.32601562 10.87585938 -16.36328125 11.23046875 C-19 12 -19 12 -22 12 C-22 10.02 -22 8.04 -22 6 C-18.7096777 4.99553896 -15.41753178 3.99719244 -12.125 3 C-11.18785156 2.71382812 -10.25070312 2.42765625 -9.28515625 2.1328125 C-8.38925781 1.86210937 -7.49335938 1.59140625 -6.5703125 1.3125 C-5.32918701 0.93544922 -5.32918701 0.93544922 -4.06298828 0.55078125 C-2 0 -2 0 0 0 Z " fill="#242E90" transform="translate(270,152)"/>
<path d="M0 0 C0 1.98 0 3.96 0 6 C-3.1019264 7.0070436 -6.20688098 8.00440805 -9.3125 9 C-10.19357422 9.28617188 -11.07464844 9.57234375 -11.98242188 9.8671875 C-12.82998047 10.13789063 -13.67753906 10.40859375 -14.55078125 10.6875 C-15.33106689 10.93886719 -16.11135254 11.19023437 -16.9152832 11.44921875 C-19 12 -19 12 -22 12 C-22 10.02 -22 8.04 -22 6 C-18.52144132 4.9978766 -15.04205526 3.9986571 -11.5625 3 C-10.56927734 2.71382812 -9.57605469 2.42765625 -8.55273438 2.1328125 C-7.13637695 1.72675781 -7.13637695 1.72675781 -5.69140625 1.3125 C-4.81685791 1.06113281 -3.94230957 0.80976563 -3.04125977 0.55078125 C-1 0 -1 0 0 0 Z " fill="#232D8F" transform="translate(236,185)"/>
<path d="M0 0 C3.3 0.33 6.6 0.66 10 1 C10 1.66 10 2.32 10 3 C10.66 3 11.32 3 12 3 C13.625 5.5 13.625 5.5 15 8 C13.06441401 8.67220351 11.12645628 9.33758077 9.1875 10 C8.10855469 10.37125 7.02960938 10.7425 5.91796875 11.125 C3 12 3 12 0 12 C0 8.04 0 4.08 0 0 Z " fill="#1F2A8E" transform="translate(250,136)"/>
<path d="M0 0 C-0.33 1.98 -0.66 3.96 -1 6 C-4.12352227 7.00465729 -7.24904853 8.00292927 -10.375 9 C-11.26445312 9.28617188 -12.15390625 9.57234375 -13.0703125 9.8671875 C-13.92109375 10.13789063 -14.771875 10.40859375 -15.6484375 10.6875 C-16.82672119 11.06455078 -16.82672119 11.06455078 -18.02880859 11.44921875 C-20 12 -20 12 -22 12 C-22 10.02 -22 8.04 -22 6 C-18.8980736 4.9929564 -15.79311902 3.99559195 -12.6875 3 C-11.80642578 2.71382812 -10.92535156 2.42765625 -10.01757812 2.1328125 C-8.74624023 1.72675781 -8.74624023 1.72675781 -7.44921875 1.3125 C-6.27879028 0.93544922 -6.27879028 0.93544922 -5.0847168 0.55078125 C-3 0 -3 0 0 0 Z " fill="#242E8F" transform="translate(236,193)"/>
<path d="M0 0 C0 0.66 0 1.32 0 2 C-3.62350621 3.17134222 -7.24903999 4.33627802 -10.875 5.5 C-11.90753906 5.83386719 -12.94007813 6.16773438 -14.00390625 6.51171875 C-15.48310547 6.98544922 -15.48310547 6.98544922 -16.9921875 7.46875 C-17.90339355 7.76201172 -18.81459961 8.05527344 -19.75341797 8.35742188 C-22 9 -22 9 -24 9 C-23.67 10.65 -23.34 12.3 -23 14 C-22.34402832 13.78794922 -21.68805664 13.57589844 -21.01220703 13.35742188 C-18.05076278 12.40194793 -15.08790909 11.45092126 -12.125 10.5 C-10.57619141 9.99919922 -10.57619141 9.99919922 -8.99609375 9.48828125 C-8.00996094 9.17246094 -7.02382813 8.85664063 -6.0078125 8.53125 C-5.09660645 8.23798828 -4.18540039 7.94472656 -3.24658203 7.64257812 C-1 7 -1 7 1 7 C0.67 7.99 0.34 8.98 0 10 C-1.9777832 10.87548828 -1.9777832 10.87548828 -4.55078125 11.5703125 C-5.47697266 11.82683594 -6.40316406 12.08335937 -7.35742188 12.34765625 C-8.33259766 12.60417969 -9.30777344 12.86070312 -10.3125 13.125 C-11.27607422 13.38925781 -12.23964844 13.65351563 -13.23242188 13.92578125 C-17.14448656 14.99394028 -21.06350127 16.02568104 -25 17 C-25.05402274 14.89611431 -25.09280256 12.79183286 -25.125 10.6875 C-25.14820313 9.51574219 -25.17140625 8.34398437 -25.1953125 7.13671875 C-25 4 -25 4 -23 1 C-23 2.65 -23 4.3 -23 6 C-22.06148193 5.72736328 -22.06148193 5.72736328 -21.10400391 5.44921875 C-18.27845666 4.63006735 -15.45175151 3.8149855 -12.625 3 C-11.64015625 2.71382812 -10.6553125 2.42765625 -9.640625 2.1328125 C-8.69960938 1.86210937 -7.75859375 1.59140625 -6.7890625 1.3125 C-5.91975098 1.06113281 -5.05043945 0.80976563 -4.15478516 0.55078125 C-2 0 -2 0 0 0 Z " fill="#C5C7DF" transform="translate(271,165)"/>
<path d="M0 0 C0 1.98 0 3.96 0 6 C-2.74970636 6.81350483 -5.49974893 7.62584054 -8.25 8.4375 C-9.02730469 8.66759766 -9.80460938 8.89769531 -10.60546875 9.13476562 C-11.35957031 9.35712891 -12.11367187 9.57949219 -12.890625 9.80859375 C-13.58188477 10.01282959 -14.27314453 10.21706543 -14.98535156 10.42749023 C-16.98114721 10.99464254 -18.98449654 11.50798004 -21 12 C-20.49609375 8.68359375 -20.49609375 8.68359375 -19 5 C-16.52397235 3.39742457 -13.90826512 2.7608012 -11.0625 2.0625 C-10.33353516 1.85560547 -9.60457031 1.64871094 -8.85351562 1.43554688 C-5.8327233 0.60212938 -3.14392507 0 0 0 Z " fill="#262F8F" transform="translate(238,162)"/>
<path d="M0 0 C0 1.65 0 3.3 0 5 C-6.27980887 7.70071112 -12.28460827 9.70024676 -19 11 C-19.33 9.02 -19.66 7.04 -20 5 C-17.23058394 4.16169027 -14.45964931 3.32917966 -11.6875 2.5 C-10.50897461 2.14228516 -10.50897461 2.14228516 -9.30664062 1.77734375 C-8.54931641 1.55175781 -7.79199219 1.32617188 -7.01171875 1.09375 C-6.31522217 0.88427734 -5.61872559 0.67480469 -4.90112305 0.45898438 C-3 0 -3 0 0 0 Z " fill="#273190" transform="translate(235,201)"/>
<path d="M0 0 C0.66 1.65 1.32 3.3 2 5 C-0.95716407 5.83752161 -3.915913 6.66930031 -6.875 7.5 C-8.13763672 7.85771484 -8.13763672 7.85771484 -9.42578125 8.22265625 C-10.63427734 8.56103516 -10.63427734 8.56103516 -11.8671875 8.90625 C-12.61081543 9.11572266 -13.35444336 9.32519531 -14.12060547 9.54101562 C-16 10 -16 10 -18 10 C-18 8.02 -18 6.04 -18 4 C-15.94037148 3.32451422 -13.87715678 2.65995688 -11.8125 2 C-10.66394531 1.62875 -9.51539063 1.2575 -8.33203125 0.875 C-5.35679188 0.09369447 -3.04716104 -0.18363306 0 0 Z " fill="#2D3691" transform="translate(267,146)"/>
<path d="M0 0 C2.64 0 5.28 0 8 0 C8.66 0.66 9.32 1.32 10 2 C9.56237193 5.17280351 8.22638495 8.05667611 7 11 C5.68 11 4.36 11 3 11 C3 9.02 3 7.04 3 5 C2.34 5 1.68 5 1 5 C1 10.61 1 16.22 1 22 C1.66 22 2.32 22 3 22 C3 19.69 3 17.38 3 15 C3.99 15.33 4.98 15.66 6 16 C5.34 16 4.68 16 4 16 C4 18.31 4 20.62 4 23 C2.68 23 1.36 23 0 23 C0 15.41 0 7.82 0 0 Z " fill="#8B8B8B" transform="translate(192,300)"/>
<path d="M0 0 C0 2.64 0 5.28 0 8 C-0.33 8 -0.66 8 -1 8 C-1.33 6.35 -1.66 4.7 -2 3 C-3.18078125 3.3609375 -4.3615625 3.721875 -5.578125 4.09375 C-7.13533005 4.56278767 -8.69262654 5.03152181 -10.25 5.5 C-11.02730469 5.73847656 -11.80460938 5.97695312 -12.60546875 6.22265625 C-13.73662109 6.56103516 -13.73662109 6.56103516 -14.890625 6.90625 C-15.92751465 7.22045898 -15.92751465 7.22045898 -16.98535156 7.54101562 C-19 8 -19 8 -23 8 C-23 9.98 -23 11.96 -23 14 C-22.44014404 13.81300537 -21.88028809 13.62601074 -21.3034668 13.43334961 C-18.76777132 12.59214979 -16.22779494 11.76470074 -13.6875 10.9375 C-12.80642578 10.64294922 -11.92535156 10.34839844 -11.01757812 10.04492188 C-10.17001953 9.77099609 -9.32246094 9.49707031 -8.44921875 9.21484375 C-7.66893311 8.95823975 -6.88864746 8.70163574 -6.0847168 8.43725586 C-4 8 -4 8 -1 9 C-4.47180445 11.3145363 -7.99795123 12.44955764 -11.9375 13.6875 C-12.65357422 13.92533203 -13.36964844 14.16316406 -14.10742188 14.40820312 C-18.05493955 15.65575042 -19.88360607 16.02909848 -24 15 C-24 11.37 -24 7.74 -24 4 C-23.34 4.66 -22.68 5.32 -22 6 C-21.44014404 5.81824219 -20.88028809 5.63648438 -20.3034668 5.44921875 C-17.76624582 4.62829897 -15.22692272 3.81408209 -12.6875 3 C-11.80642578 2.71382812 -10.92535156 2.42765625 -10.01757812 2.1328125 C-8.74624023 1.72675781 -8.74624023 1.72675781 -7.44921875 1.3125 C-6.27879028 0.93544922 -6.27879028 0.93544922 -5.0847168 0.55078125 C-3 0 -3 0 0 0 Z " fill="#AEB1D1" transform="translate(237,183)"/>
<path d="M0 0 C-1.22677428 0.94062842 -2.45655035 1.87734232 -3.6875 2.8125 C-4.37199219 3.33457031 -5.05648437 3.85664063 -5.76171875 4.39453125 C-10.52449621 7.8107643 -13.31919589 9.38508145 -19.3125 9.1875 C-20.91544922 9.14689453 -20.91544922 9.14689453 -22.55078125 9.10546875 C-23.76314453 9.05326172 -23.76314453 9.05326172 -25 9 C-25.33 8.01 -25.66 7.02 -26 6 C-22.04513357 4.80073367 -18.08562514 3.61759546 -14.125 2.4375 C-12.99707031 2.09525391 -11.86914062 1.75300781 -10.70703125 1.40039062 C-9.63066406 1.08134766 -8.55429688 0.76230469 -7.4453125 0.43359375 C-5.95281982 -0.01415405 -5.95281982 -0.01415405 -4.43017578 -0.47094727 C-2 -1 -2 -1 0 0 Z " fill="#3E4699" transform="translate(253,220)"/>
<path d="M0 0 C0 1.98 0 3.96 0 6 C-2.60101286 6.86500888 -5.20506411 7.71726928 -7.8125 8.5625 C-8.55048828 8.80935547 -9.28847656 9.05621094 -10.04882812 9.31054688 C-15.66015625 11.11328125 -15.66015625 11.11328125 -19 10 C-18.46875 7.67578125 -18.46875 7.67578125 -17 5 C-14.42241729 3.80284289 -12.19737499 2.95637792 -9.5 2.1875 C-8.81035156 1.97158203 -8.12070313 1.75566406 -7.41015625 1.53320312 C-2.41629464 0 -2.41629464 0 0 0 Z " fill="#222B8F" transform="translate(239,154)"/>
<path d="M0 0 C4.75 0.875 4.75 0.875 7 2 C7.25 9.625 7.25 9.625 5 13 C2.5 13.375 2.5 13.375 0 13 C-2.45811625 9.31282562 -2.31118164 7.35654296 -2 3 C-1.34 2.01 -0.68 1.02 0 0 Z " fill="#F4F4F4" transform="translate(210,305)"/>
<path d="M0 0 C1.32 0 2.64 0 4 0 C4 7.59 4 15.18 4 23 C2.68 23 1.36 23 0 23 C0 15.41 0 7.82 0 0 Z " fill="#8D8D8D" transform="translate(291,300)"/>
<path d="M0 0 C1.65 0 3.3 0 5 0 C6.29243536 4.1196377 7.26252625 7.66831683 7 12 C6.34 12 5.68 12 5 12 C5 12.99 5 13.98 5 15 C3.35 15 1.7 15 0 15 C-1.125 10.25 -1.125 10.25 0 8 C-0.165 7.38125 -0.33 6.7625 -0.5 6.125 C-1.06796534 3.71114731 -0.74944532 2.33160767 0 0 Z " fill="#7D7D7D" transform="translate(301,300)"/>
<path d="M0 0 C3.375 1.1875 3.375 1.1875 5.4375 3.8125 C6.59011839 7.9619262 5.88415865 10.21602987 4.375 14.1875 C4.045 14.1875 3.715 14.1875 3.375 14.1875 C3.375 11.8775 3.375 9.5675 3.375 7.1875 C1.065 6.5275 -1.245 5.8675 -3.625 5.1875 C-3.955 6.1775 -4.285 7.1675 -4.625 8.1875 C-5.615 7.8575 -6.605 7.5275 -7.625 7.1875 C-7.625 10.4875 -7.625 13.7875 -7.625 17.1875 C-7.955 17.1875 -8.285 17.1875 -8.625 17.1875 C-9.39723089 6.42774961 -9.39723089 6.42774961 -6.5625 1.875 C-3.625 0.1875 -3.625 0.1875 0 0 Z " fill="#7E7E7E" transform="translate(213.625,299.8125)"/>
<path d="M0 0 C1.875 1.25 1.875 1.25 3 3 C2.6875 5.1875 2.6875 5.1875 2 7 C-0.31 6.67 -2.62 6.34 -5 6 C-6.88391785 9.26545761 -7.49287967 12.28111761 -8 16 C-8.66 16 -9.32 16 -10 16 C-10.77760323 6.13307899 -10.77760323 6.13307899 -7.8125 1.8125 C-4.77406903 -0.14559996 -3.51989546 -0.74103062 0 0 Z " fill="#7B7B7B" transform="translate(185,300)"/>
<path d="M0 0 C0.33 0.99 0.66 1.98 1 3 C0.67 3.33 0.34 3.66 0 4 C0.66 4.66 1.32 5.32 2 6 C-0.64 6 -3.28 6 -6 6 C-6 7.65 -6 9.3 -6 11 C-4.68 11 -3.36 11 -2 11 C-2.33 11.99 -2.66 12.98 -3 14 C-5.375 14.1875 -5.375 14.1875 -8 14 C-10.45811625 10.31282562 -10.31118164 8.35654296 -10 4 C-9.34 3.01 -8.68 2.02 -8 1 C-5.69 1.33 -3.38 1.66 -1 2 C-0.67 1.34 -0.34 0.68 0 0 Z " fill="#F5F5F5" transform="translate(188,304)"/>
<path d="M0 0 C1.65 0 3.3 0 5 0 C7.46324069 3.69486103 7.38991688 5.63293092 7 10 C5.75 11.9375 5.75 11.9375 4 13 C2.68 13 1.36 13 0 13 C0 8.71 0 4.42 0 0 Z " fill="#F1F1F1" transform="translate(279,305)"/>
<path d="M0 0 C1.32 0 2.64 0 4 0 C4 5.94 4 11.88 4 18 C3.01 18.33 2.02 18.66 1 19 C0 18 0 18 -0.11352539 16.23413086 C-0.10828857 15.48526611 -0.10305176 14.73640137 -0.09765625 13.96484375 C-0.09443359 13.15595703 -0.09121094 12.34707031 -0.08789062 11.51367188 C-0.07951172 10.66353516 -0.07113281 9.81339844 -0.0625 8.9375 C-0.05798828 8.08349609 -0.05347656 7.22949219 -0.04882812 6.34960938 C-0.03700373 4.23304337 -0.01906769 2.11651315 0 0 Z " fill="#838383" transform="translate(222,300)"/>
<path d="M0 0 C0 1.98 0 3.96 0 6 C-4.95 7.32 -9.9 8.64 -15 10 C-12.58355795 3.95889488 -12.58355795 3.95889488 -10 2 C-7.7734375 1.26953125 -7.7734375 1.26953125 -5.375 0.8125 C-4.57835937 0.65394531 -3.78171875 0.49539062 -2.9609375 0.33203125 C-1 0 -1 0 0 0 Z " fill="#2A3491" transform="translate(240,146)"/>
<path d="M0 0 C0.99 0 1.98 0 3 0 C3 7.26 3 14.52 3 22 C2.01 22 1.02 22 0 22 C0 14.74 0 7.48 0 0 Z " fill="#6F6F6F" transform="translate(255,300)"/>
<path d="M0 0 C-0.33 0.66 -0.66 1.32 -1 2 C-3.30078125 2.7109375 -3.30078125 2.7109375 -6.3125 3.375 C-10.80496044 4.44027804 -15.22265794 5.60530397 -19.625 7 C-20.60726562 7.309375 -21.58953125 7.61875 -22.6015625 7.9375 C-25.30690821 8.87961598 -25.30690821 8.87961598 -27 12 C-26.67 10.02 -26.34 8.04 -26 6 C-22.75045534 5.01931786 -19.50028665 4.04071988 -16.25 3.0625 C-15.32960938 2.78470703 -14.40921875 2.50691406 -13.4609375 2.22070312 C-12.57148438 1.95322266 -11.68203125 1.68574219 -10.765625 1.41015625 C-9.94868164 1.16402588 -9.13173828 0.91789551 -8.29003906 0.66430664 C-7.53432617 0.44508545 -6.77861328 0.22586426 -6 0 C-4.92443848 -0.32206421 -4.92443848 -0.32206421 -3.82714844 -0.65063477 C-2 -1 -2 -1 0 0 Z " fill="#AAADCE" transform="translate(272,181)"/>
<path d="M0 0 C0 0.66 0 1.32 0 2 C-3.62350621 3.17134222 -7.24903999 4.33627802 -10.875 5.5 C-11.90753906 5.83386719 -12.94007813 6.16773438 -14.00390625 6.51171875 C-15.48310547 6.98544922 -15.48310547 6.98544922 -16.9921875 7.46875 C-17.90339355 7.76201172 -18.81459961 8.05527344 -19.75341797 8.35742188 C-22 9 -22 9 -24 9 C-24 6.36 -24 3.72 -24 1 C-23.67 1 -23.34 1 -23 1 C-23 2.65 -23 4.3 -23 6 C-22.06148193 5.72736328 -22.06148193 5.72736328 -21.10400391 5.44921875 C-18.27845666 4.63006735 -15.45175151 3.8149855 -12.625 3 C-11.64015625 2.71382812 -10.6553125 2.42765625 -9.640625 2.1328125 C-8.69960938 1.86210937 -7.75859375 1.59140625 -6.7890625 1.3125 C-5.91975098 1.06113281 -5.05043945 0.80976563 -4.15478516 0.55078125 C-2 0 -2 0 0 0 Z " fill="#B3B6D3" transform="translate(271,165)"/>
<path d="M0 0 C0.33 0.99 0.66 1.98 1 3 C0.01 4.485 0.01 4.485 -1 6 C-3.7885289 6.22107787 -6.34653181 6.28107535 -9.125 6.1875 C-9.87910156 6.17396484 -10.63320313 6.16042969 -11.41015625 6.14648438 C-13.27374127 6.11109985 -15.13695978 6.05729167 -17 6 C-13.62787619 3.75191746 -10.7125039 2.94839557 -6.8125 1.875 C-5.83120117 1.60236328 -5.83120117 1.60236328 -4.83007812 1.32421875 C-3.22137657 0.87800956 -1.61085869 0.43835785 0 0 Z " fill="#212B8E" transform="translate(268,190)"/>
<path d="M0 0 C2 2 2 2 2.1953125 5.9140625 C2.18200376 7.48449351 2.15813602 9.05486221 2.125 10.625 C2.11597656 11.42679687 2.10695312 12.22859375 2.09765625 13.0546875 C2.07406223 15.03658523 2.03819065 17.01832981 2 19 C2.33 18.01 2.66 17.02 3 16 C3.33 16 3.66 16 4 16 C3.88490339 17.41750563 3.75746342 18.83401169 3.625 20.25 C3.55539063 21.03890625 3.48578125 21.8278125 3.4140625 22.640625 C2.98492887 25.085877 2.21399362 26.84836903 1 29 C0.67 28.01 0.34 27.02 0 26 C-1.98 26.99 -1.98 26.99 -4 28 C-3.71125 27.48695313 -3.4225 26.97390625 -3.125 26.4453125 C1.04145475 17.85199957 0.36507761 9.30947895 0 0 Z " fill="#9A9DC3" transform="translate(230,251)"/>
<path d="M0 0 C0 0.66 0 1.32 0 2 C-3.12352227 3.00465729 -6.24904853 4.00292927 -9.375 5 C-10.26445312 5.28617188 -11.15390625 5.57234375 -12.0703125 5.8671875 C-13.34648437 6.27324219 -13.34648437 6.27324219 -14.6484375 6.6875 C-15.43395996 6.93886719 -16.21948242 7.19023437 -17.02880859 7.44921875 C-19 8 -19 8 -21 8 C-20.67 5.69 -20.34 3.38 -20 1 C-19.67 2.32 -19.34 3.64 -19 5 C-17.96359375 4.6390625 -16.9271875 4.278125 -15.859375 3.90625 C-14.48969264 3.4371807 -13.11989486 2.96844834 -11.75 2.5 C-10.72712891 2.14228516 -10.72712891 2.14228516 -9.68359375 1.77734375 C-6.23586997 0.60578713 -3.68297096 0 0 0 Z " fill="#B3B6D2" transform="translate(237,168)"/>
<path d="M0 0 C3.3 0.33 6.6 0.66 10 1 C10 1.66 10 2.32 10 3 C10.66 3.33 11.32 3.66 12 4 C8.04 4.99 4.08 5.98 0 7 C0 4.69 0 2.38 0 0 Z " fill="#A2A5C8" transform="translate(250,136)"/>
<path d="M0 0 C0 0.99 0 1.98 0 3 C-3.26651375 4.03502777 -6.53877363 5.05053935 -9.8125 6.0625 C-10.74126953 6.35705078 -11.67003906 6.65160156 -12.62695312 6.95507812 C-13.51962891 7.22900391 -14.41230469 7.50292969 -15.33203125 7.78515625 C-16.15421143 8.04176025 -16.9763916 8.29836426 -17.82348633 8.56274414 C-20 9 -20 9 -23 8 C-23 6.02 -23 4.04 -23 2 C-22.67 2 -22.34 2 -22 2 C-22 3.65 -22 5.3 -22 7 C-14.74 4.69 -7.48 2.38 0 0 Z " fill="#BDBFD9" transform="translate(270,157)"/>
<path d="M0 0 C0.33 0 0.66 0 1 0 C1 1.98 1 3.96 1 6 C2.03640625 5.62746094 3.0728125 5.25492188 4.140625 4.87109375 C5.51022242 4.39267273 6.88002502 3.91483879 8.25 3.4375 C8.93191406 3.19064453 9.61382812 2.94378906 10.31640625 2.68945312 C16.58342161 0.52946239 16.58342161 0.52946239 20 2 C16.84605348 4.10263102 14.17536296 5.01776618 10.5625 6.125 C9.42941406 6.47820312 8.29632813 6.83140625 7.12890625 7.1953125 C4 8 4 8 0 8 C0 5.36 0 2.72 0 0 Z " fill="#B2B5D3" transform="translate(248,150)"/>
<path d="M0 0 C0 0.66 0 1.32 0 2 C-2.58122508 2.84039886 -5.16463901 3.67250556 -7.75 4.5 C-8.47960937 4.73847656 -9.20921875 4.97695312 -9.9609375 5.22265625 C-10.66992188 5.44824219 -11.37890625 5.67382812 -12.109375 5.90625 C-13.08342285 6.22045898 -13.08342285 6.22045898 -14.07714844 6.54101562 C-16 7 -16 7 -20 7 C-20.33 8.32 -20.66 9.64 -21 11 C-21 9.35 -21 7.7 -21 6 C-18.25262623 4.99222971 -15.50250048 3.99358554 -12.75 3 C-11.97269531 2.71382812 -11.19539062 2.42765625 -10.39453125 2.1328125 C-9.64042969 1.86210937 -8.88632813 1.59140625 -8.109375 1.3125 C-7.41811523 1.06113281 -6.72685547 0.80976563 -6.01464844 0.55078125 C-4 0 -4 0 0 0 Z " fill="#BDBFD8" transform="translate(235,199)"/>
<path d="M0 0 C-0.33 0.99 -0.66 1.98 -1 3 C-1 2.34 -1 1.68 -1 1 C-1.98742187 1.37253906 -2.97484375 1.74507812 -3.9921875 2.12890625 C-5.28631113 2.60716933 -6.58059011 3.0850122 -7.875 3.5625 C-8.52597656 3.80935547 -9.17695313 4.05621094 -9.84765625 4.31054688 C-11.54497665 4.93173115 -13.27156776 5.47152252 -15 6 C-15.66 5.67 -16.32 5.34 -17 5 C-14.62481389 1.43722083 -13.6439658 1.30592131 -9.625 0.25 C-8.66851562 -0.01296875 -7.71203125 -0.2759375 -6.7265625 -0.546875 C-4.04424693 -0.99264664 -2.53402469 -0.88871008 0 0 Z " fill="#A9ABCD" transform="translate(240,153)"/>
<path d="M0 0 C0.33 0 0.66 0 1 0 C1 7.59 1 15.18 1 23 C0.34 22.01 -0.32 21.02 -1 20 C-1.99 20 -2.98 20 -4 20 C-3.69320312 19.51015625 -3.38640625 19.0203125 -3.0703125 18.515625 C-1.58634476 15.02775921 -1.27736958 11.48346196 -0.875 7.75 C-0.78863281 7.00492187 -0.70226562 6.25984375 -0.61328125 5.4921875 C-0.40213133 3.66222154 -0.20015455 1.83120121 0 0 Z " fill="#EEEEEE" transform="translate(191,300)"/>
<path d="M0 0 C1.41377341 2.63904371 2.37240135 5.07120629 3 8 C1.35 8 -0.3 8 -2 8 C-2.33 6.35 -2.66 4.7 -3 3 C-2.34 3 -1.68 3 -1 3 C-0.67 2.01 -0.34 1.02 0 0 Z M4 0 C4.33 0 4.66 0 5 0 C5 1.65 5 3.3 5 5 C4.34 4.67 3.68 4.34 3 4 C3.33 2.68 3.66 1.36 4 0 Z " fill="#B7B7B7" transform="translate(303,307)"/>
<path d="M0 0 C0.66 0 1.32 0 2 0 C2.33 1.98 2.66 3.96 3 6 C2.67 5.34 2.34 4.68 2 4 C1.34 4 0.68 4 0 4 C-0.12117188 4.58007812 -0.24234375 5.16015625 -0.3671875 5.7578125 C-1.33735474 10.28028442 -2.43397783 14.63750966 -4 19 C-5.79341438 14.83326479 -4.01173384 11.25336659 -2.5625 7.25 C-2.19801758 6.20392578 -2.19801758 6.20392578 -1.82617188 5.13671875 C-1.22689752 3.42114902 -0.61470115 1.71010285 0 0 Z " fill="#ADB0CE" transform="translate(263,259)"/>
<path d="M0 0 C-0.33 0.33 -0.66 0.66 -1 1 C-0.34 1.66 0.32 2.32 1 3 C-2.96 3 -6.92 3 -11 3 C-11 2.34 -11 1.68 -11 1 C-3.57142857 -1.42857143 -3.57142857 -1.42857143 0 0 Z " fill="#242E8F" transform="translate(238,225)"/>
<path d="M0 0 C0 1.65 0 3.3 0 5 C-2.64 5.66 -5.28 6.32 -8 7 C-6.47663111 3.31852519 -4.31953005 0 0 0 Z " fill="#353C99" transform="translate(241,139)"/>
<path d="M0 0 C0.33 0 0.66 0 1 0 C0.88490339 1.41750563 0.75746342 2.83401169 0.625 4.25 C0.55539063 5.03890625 0.48578125 5.8278125 0.4140625 6.640625 C-0.01507113 9.085877 -0.78600638 10.84836903 -2 13 C-2.33 12.01 -2.66 11.02 -3 10 C-4.98 10.99 -4.98 10.99 -7 12 C-5.625 9.5 -5.625 9.5 -4 7 C-3.34 7 -2.68 7 -2 7 C-1.34 4.69 -0.68 2.38 0 0 Z " fill="#C2C4DB" transform="translate(233,267)"/>
<path d="M0 0 C2 1 2 1 2.625 2.625 C3.12095645 5.7660575 3.06103811 8.82601831 3 12 C2.34 11.67 1.68 11.34 1 11 C0.34 11.99 -0.32 12.98 -1 14 C-0.9278125 13.15695312 -0.855625 12.31390625 -0.78125 11.4453125 C-0.6884375 10.34960938 -0.595625 9.25390625 -0.5 8.125 C-0.4071875 7.03445313 -0.314375 5.94390625 -0.21875 4.8203125 C-0.09437042 3.21670436 0 1.60842449 0 0 Z " fill="#D6D6D6" transform="translate(202,303)"/>
<path d="M0 0 C1.32 0 2.64 0 4 0 C4 1.98 4 3.96 4 6 C2.68 6 1.36 6 0 6 C0 4.02 0 2.04 0 0 Z " fill="#EAEAEA" transform="translate(240,305)"/>
<path d="M0 0 C1.98 0 3.96 0 6 0 C6 1.98 6 3.96 6 6 C5.34 5.67 4.68 5.34 4 5 C4 4.34 4 3.68 4 3 C2.68 3 1.36 3 0 3 C0 2.01 0 1.02 0 0 Z " fill="#6D6D6D" transform="translate(183,311)"/>
<path d="M0 0 C0.33 0 0.66 0 1 0 C1.33 6.27 1.66 12.54 2 19 C1.01 19.33 0.02 19.66 -1 20 C-0.67 13.4 -0.34 6.8 0 0 Z " fill="#E5E5E5" transform="translate(234,300)"/>
<path d="M0 0 C1.32 0.33 2.64 0.66 4 1 C3.67 2.65 3.34 4.3 3 6 C2.01 6 1.02 6 0 6 C0 4.02 0 2.04 0 0 Z " fill="#EFEFEF" transform="translate(196,305)"/>
<path d="M0 0 C0.99 0 1.98 0 3 0 C2.67 2.97 2.34 5.94 2 9 C1.34 9 0.68 9 0 9 C0 6.03 0 3.06 0 0 Z " fill="#717171" transform="translate(175,307)"/>
<path d="M0 0 C0 0.66 0 1.32 0 2 C-1.28745036 2.38922918 -2.58019597 2.76098036 -3.875 3.125 C-4.59429687 3.33382812 -5.31359375 3.54265625 -6.0546875 3.7578125 C-6.69664062 3.83773437 -7.33859375 3.91765625 -8 4 C-8.66 3.34 -9.32 2.68 -10 2 C-6.38026598 0.68373308 -3.90432869 0 0 0 Z " fill="#ABAECD" transform="translate(235,199)"/>
<path d="M0 0 C0 0.66 0 1.32 0 2 C-1.28745036 2.38922918 -2.58019597 2.76098036 -3.875 3.125 C-4.59429687 3.33382812 -5.31359375 3.54265625 -6.0546875 3.7578125 C-6.69664062 3.83773437 -7.33859375 3.91765625 -8 4 C-8.66 3.34 -9.32 2.68 -10 2 C-6.38026598 0.68373308 -3.90432869 0 0 0 Z " fill="#AAADCC" transform="translate(237,168)"/>
<path d="M0 0 C0.66 0 1.32 0 2 0 C2 1.32 2 2.64 2 4 C-0.1385485 6.1385485 -1.13275314 6.42655063 -4 7 C-2.92598892 4.08482708 -2.22189824 2.22189824 0 0 Z " fill="#19228D" transform="translate(229,149)"/>
<path d="M0 0 C-0.33 0.99 -0.66 1.98 -1 3 C-3.31 3.33 -5.62 3.66 -8 4 C-8 3.01 -8 2.02 -8 1 C-2.25 0 -2.25 0 0 0 Z " fill="#A5A8CB" transform="translate(240,144)"/>
<path d="M0 0 C2.31 0.33 4.62 0.66 7 1 C3.375 4 3.375 4 0 4 C0 2.68 0 1.36 0 0 Z " fill="#171F8B" transform="translate(251,136)"/>
<path d="M0 0 C-0.33 0.99 -0.66 1.98 -1 3 C-2.84765625 3.73046875 -2.84765625 3.73046875 -5.0625 4.1875 C-5.79597656 4.34605469 -6.52945312 4.50460938 -7.28515625 4.66796875 C-8.13400391 4.83232422 -8.13400391 4.83232422 -9 5 C-8.67 4.01 -8.34 3.02 -8 2 C-5.27366306 0.89786379 -2.95855967 0 0 0 Z " fill="#AAADCC" transform="translate(272,172)"/>
<path d="M0 0 C0.33 0 0.66 0 1 0 C1 1.65 1 3.3 1 5 C2.98 5 4.96 5 7 5 C4.64046906 7.35953094 3.22104383 7.49141413 0 8 C0 5.36 0 2.72 0 0 Z " fill="#A6A9CA" transform="translate(247,166)"/>
<path d="M0 0 C-3.00617269 3.00617269 -5.82381598 2.59585316 -10 3 C-8.0130571 -0.97388579 -3.91761109 -0.08705802 0 0 Z " fill="#B3B6D2" transform="translate(230,186)"/>
<path d="M0 0 C3 3.75 3 3.75 3 6 C1.35 5.67 -0.3 5.34 -2 5 C-1.34 3.35 -0.68 1.7 0 0 Z " fill="#939393" transform="translate(201,317)"/>
<path d="M0 0 C0.99 0.495 0.99 0.495 2 1 C2.4140625 3.50390625 2.4140625 3.50390625 2.625 6.5625 C2.69976562 7.57441406 2.77453125 8.58632813 2.8515625 9.62890625 C2.92503906 10.80259766 2.92503906 10.80259766 3 12 C2.01 12.33 1.02 12.66 0 13 C0 8.71 0 4.42 0 0 Z " fill="#D6D6D6" transform="translate(219,305)"/>
</svg>
