<?xml version="1.0" encoding="UTF-8"?>
<svg version="1.1" xmlns="http://www.w3.org/2000/svg" width="480" height="480">
<path d="M0 0 C158.4 0 316.8 0 480 0 C480 158.4 480 316.8 480 480 C321.6 480 163.2 480 0 480 C0 321.6 0 163.2 0 0 Z " fill="#D84027" transform="translate(0,0)"/>
<path d="M0 0 C0.80050781 0.30035156 1.60101563 0.60070312 2.42578125 0.91015625 C16.64684701 6.93091095 29.09838322 20.06823027 37 33 C37.52078125 33.84949219 38.0415625 34.69898438 38.578125 35.57421875 C52.02869417 58.84098612 54.90214923 88.35951136 49.0625 114.44140625 C47.47872796 119.74587805 45.49633847 124.80948395 43.3046875 129.890625 C42.29567257 132.29534321 41.51589624 134.45826731 41 137 C40.34 137 39.68 137 39 137 C38.7421875 137.88300781 38.484375 138.76601563 38.21875 139.67578125 C36.19691748 145.19045905 32.61693446 149.42384475 29 154 C28.278125 154.91394531 27.55625 155.82789063 26.8125 156.76953125 C14.21805176 171.64034092 -4.77906781 182.59974529 -24 186 C-42.01532259 187.20046957 -57.60346837 186.98441434 -72 175 C-72.65871094 174.4534375 -73.31742187 173.906875 -73.99609375 173.34375 C-79.44187188 168.37813726 -84.63074338 160.59667626 -85.12939453 153.03881836 C-85.13108643 151.95032593 -85.13108643 151.95032593 -85.1328125 150.83984375 C-85.13474609 149.6497168 -85.13474609 149.6497168 -85.13671875 148.43554688 C-85.13285156 147.61119141 -85.12898438 146.78683594 -85.125 145.9375 C-85.13080078 144.69516602 -85.13080078 144.69516602 -85.13671875 143.42773438 C-85.13542969 142.63560547 -85.13414062 141.84347656 -85.1328125 141.02734375 C-85.13168457 140.30281006 -85.13055664 139.57827637 -85.12939453 138.83178711 C-85 137 -85 137 -84 135 C-80.41651671 136.33740715 -77.27670015 137.97447689 -74 139.9375 C-60.60025203 147.24482923 -43.4925684 148.3637303 -28.84765625 144.11328125 C-23.51574919 142.02879083 -18.75300876 139.16631135 -14 136 C-13.39285156 135.59910156 -12.78570312 135.19820312 -12.16015625 134.78515625 C-2.02108626 127.22791841 4.25001727 113.01627598 7 101 C7.41301901 97.46639296 7.47796866 93.99268803 7.4375 90.4375 C7.42505249 89.00893677 7.42505249 89.00893677 7.41235352 87.55151367 C7.09232831 73.93620628 4.61619078 61.91501154 -4 51 C-4.64324219 50.17757812 -5.28648437 49.35515625 -5.94921875 48.5078125 C-13.59356577 39.34661077 -22.78130983 34.82637559 -34.375 32.25 C-49.57778662 31.20153196 -63.35349069 31.96464871 -75.25 42.3125 C-87.00178684 53.52022263 -91.47488397 67.30431472 -94 83 C-94.17293548 83.91553209 -94.34587095 84.83106419 -94.5240469 85.77433968 C-95.03267125 89.2214217 -95.1396573 92.50138463 -95.15821838 95.98556519 C-95.16315636 96.66447787 -95.16809434 97.34339056 -95.17318195 98.04287636 C-95.18846833 100.30446083 -95.19689336 102.5660171 -95.20532227 104.82763672 C-95.21490777 106.45411931 -95.22491824 108.08059945 -95.23532104 109.70707703 C-95.26230334 114.11359023 -95.28334896 118.52011408 -95.30332303 122.92666388 C-95.32522386 127.5351234 -95.35259247 132.14355039 -95.37937927 136.75198364 C-95.42925083 145.47471875 -95.47421016 154.19747197 -95.51740164 162.92024243 C-95.56682138 172.85249945 -95.62172192 182.78472381 -95.67708123 192.71694922 C-95.79081627 213.14460382 -95.89695023 233.57228851 -96 254 C-110.52 254 -125.04 254 -140 254 C-140.08826065 225.26878078 -140.16208688 196.53766446 -140.20426132 167.80634327 C-140.20926386 164.4106902 -140.21444118 161.01503741 -140.21972656 157.61938477 C-140.2207758 156.94340063 -140.22182505 156.26741649 -140.22290608 155.57094798 C-140.24028878 144.64020482 -140.2718146 133.70954622 -140.30861118 122.77885314 C-140.34608021 111.55439471 -140.36794922 100.32997836 -140.37635398 89.10545427 C-140.38156291 82.80438691 -140.39378255 76.50351103 -140.42292023 70.20250511 C-140.45014272 64.26736972 -140.45843106 58.33250406 -140.45243073 52.39731216 C-140.45352789 50.22335276 -140.46144073 48.04938401 -140.4768219 45.87547874 C-140.57793376 30.84284626 -140.14831888 18.32527632 -129 7 C-119.35927132 -1.30585856 -108.43264777 -3.59203085 -96 -3 C-95.505 7.395 -95.505 7.395 -95 18 C-92.855 16.123125 -90.71 14.24625 -88.5 12.3125 C-79.47223672 4.552861 -71.29027778 0.01247617 -60 -4 C-59.13375 -4.31195313 -58.2675 -4.62390625 -57.375 -4.9453125 C-38.62606304 -11.46943583 -17.48699547 -8.74349773 0 0 Z " fill="#FEFCFC" transform="translate(224,154)"/>
<path d="M0 0 C4.75256134 4.27411556 8.67822791 9.65067818 9.87890625 16.01171875 C10.10170186 24.5131302 7.14108929 30.28921428 2.328125 37.09375 C0.966875 35.794375 0.966875 35.794375 -0.421875 34.46875 C-9.05318241 27.21845178 -16.96014743 24.42042689 -28.2265625 24.4921875 C-32.26206007 25.19679819 -34.48660771 26.55672891 -37.671875 29.09375 C-39.49806587 31.60739756 -39.49806587 31.60739756 -40.671875 34.09375 C-41.166875 35.08375 -41.166875 35.08375 -41.671875 36.09375 C-41.82683263 38.34349161 -41.92198428 40.59746536 -41.98828125 42.8515625 C-42.02638916 44.06473145 -42.06449707 45.27790039 -42.10375977 46.52783203 C-42.14686279 48.07583496 -42.18996582 49.62383789 -42.234375 51.21875 C-42.37875 56.1275 -42.523125 61.03625 -42.671875 66.09375 C-27.161875 66.09375 -11.651875 66.09375 4.328125 66.09375 C2.07587275 79.60726351 2.07587275 79.60726351 -0.671875 84.65625 C-1.1875 85.62691406 -1.703125 86.59757812 -2.234375 87.59765625 C-3.31276237 89.47018214 -4.47325111 91.29581416 -5.671875 93.09375 C-6.331875 93.09375 -6.991875 93.09375 -7.671875 93.09375 C-7.671875 93.75375 -7.671875 94.41375 -7.671875 95.09375 C-9.17578125 96.27734375 -9.17578125 96.27734375 -11.234375 97.53125 C-12.22630859 98.14806641 -12.22630859 98.14806641 -13.23828125 98.77734375 C-24.55435853 104.89856051 -27.05940313 103.09375 -42.671875 103.09375 C-42.671875 152.26375 -42.671875 201.43375 -42.671875 252.09375 C-56.861875 252.09375 -71.051875 252.09375 -85.671875 252.09375 C-85.671875 202.59375 -85.671875 153.09375 -85.671875 102.09375 C-93.921875 102.09375 -102.171875 102.09375 -110.671875 102.09375 C-113.86004922 98.90557578 -115.64597485 96.71786728 -117.859375 92.96875 C-124.77959479 81.93459912 -134.12888393 71.60561729 -146.671875 67.09375 C-146.671875 66.76375 -146.671875 66.43375 -146.671875 66.09375 C-126.541875 66.09375 -106.411875 66.09375 -85.671875 66.09375 C-85.71124127 53.75424968 -85.71124127 53.75424968 -85.76196289 41.41479492 C-85.85098889 10.19317835 -85.85098889 10.19317835 -74.671875 -1.90625 C-55.90580127 -19.99693804 -19.18436091 -13.6870879 0 0 Z " fill="#FEFDFD" transform="translate(386.671875,83.90625)"/>
<path d="M0 0 C3.96 0 7.92 0 12 0 C12.16753503 3.43745971 12.3340654 6.87496298 12.5 10.3125 C12.54769531 11.28896484 12.59539062 12.26542969 12.64453125 13.27148438 C12.68964844 14.20927734 12.73476562 15.14707031 12.78125 16.11328125 C12.8440918 17.40939331 12.8440918 17.40939331 12.90820312 18.73168945 C12.97922401 20.48662304 13 22.24362992 13 24 C12.01 24 11.02 24 10 24 C10 16.41 10 8.82 10 1 C6.7 1 3.4 1 0 1 C0 0.67 0 0.34 0 0 Z " fill="#EEC0BE" transform="translate(116,151)"/>
<path d="M0 0 C0 3 0 3 -2.375 5.6875 C-5 8 -5 8 -7 8 C-5.50902342 4.2047869 -3.24299151 2.38957269 0 0 Z " fill="#E56036" transform="translate(353,109)"/>
<path d="M0 0 C0.66 0.33 1.32 0.66 2 1 C0.88121617 2.17262904 -0.24523051 3.33795138 -1.375 4.5 C-2.00148438 5.1496875 -2.62796875 5.799375 -3.2734375 6.46875 C-5 8 -5 8 -7 8 C-5.50902342 4.2047869 -3.24299151 2.38957269 0 0 Z " fill="#F7DCD7" transform="translate(316,79)"/>
</svg>
