<?xml version="1.0" encoding="UTF-8"?>
<svg version="1.1" xmlns="http://www.w3.org/2000/svg" width="480" height="480">
<path d="M0 0 C158.4 0 316.8 0 480 0 C480 158.4 480 316.8 480 480 C321.6 480 163.2 480 0 480 C0 321.6 0 163.2 0 0 Z " fill="#EB1C79" transform="translate(0,0)"/>
<path d="M0 0 C0.33 8.91 0.66 17.82 1 27 C2.98 25.68 4.96 24.36 7 23 C13.91540009 20.69486664 21.76817037 20.96713435 28.375 24.0625 C36.84275994 28.98944622 42.33222972 35.46213103 45 45 C46.23964126 55.17810722 45.2878062 64.71687805 39.421875 73.3125 C35.02217503 78.70312339 29.97667346 82.67110982 23 84 C14.60855173 84.63039205 8.18126084 84.59600694 1 80 C0.67 80.99 0.34 81.98 0 83 C-6.27 83 -12.54 83 -19 83 C-19 57.26 -19 31.52 -19 5 C-4 0 -4 0 0 0 Z " fill="#FEF8FA" transform="translate(259,199)"/>
<path d="M0 0 C0.33 9.24 0.66 18.48 1 28 C2.65 26.68 4.3 25.36 6 24 C12.12715255 20.89188061 19.72573268 20.85730248 26.30859375 22.6171875 C32.76164877 25.55157469 40.00438508 30.98521199 42.9375 37.5625 C43.288125 38.696875 43.63875 39.83125 44 41 C44.5878125 42.6396875 44.5878125 42.6396875 45.1875 44.3125 C47.44682135 54.56634304 45.79207325 63.92755972 40.1875 72.8125 C36.05034907 78.59429612 31.99605277 82.09880807 25 84 C17.28839893 84.6405537 9.77365474 85.09569821 3 81 C2.34 80.34 1.68 79.68 1 79 C0.67 80.32 0.34 81.64 0 83 C-5.94 83 -11.88 83 -18 83 C-18 57.26 -18 31.52 -18 5 C-3 0 -3 0 0 0 Z " fill="#FEFAFC" transform="translate(328,199)"/>
<path d="M0 0 C0 21.45 0 42.9 0 65 C-6.27 65 -12.54 65 -19 65 C-19.33 64.01 -19.66 63.02 -20 62 C-20.71349609 62.433125 -20.71349609 62.433125 -21.44140625 62.875 C-29.23040344 67.00618083 -37.64129311 67.14301363 -46.23828125 65.59765625 C-52.94330165 63.23933873 -58.33644472 56.5971998 -62 50.75 C-64.37507906 45.58118387 -64.49305812 40.47324101 -64.5625 34.875 C-64.57732422 34.02776367 -64.59214844 33.18052734 -64.60742188 32.30761719 C-64.47517083 24.23715445 -61.56076868 17.86970028 -56 12 C-48.89890704 5.76906285 -42.34319451 3.47953428 -32.8671875 3.59765625 C-28.0449336 4.27434855 -24.11960915 6.49785127 -20 9 C-19.835 8.39671875 -19.67 7.7934375 -19.5 7.171875 C-17.18164492 3.81509003 -13.75725384 3.29441147 -10 2.25 C-9.26265625 2.02957031 -8.5253125 1.80914062 -7.765625 1.58203125 C-2.38082298 0 -2.38082298 0 0 0 Z " fill="#FEF8FA" transform="translate(233,217)"/>
<path d="M0 0 C0.73734375 0.39058594 1.4746875 0.78117188 2.234375 1.18359375 C8.42690281 4.85131576 12.60308199 9.65398918 16 16 C16 16.99 16 17.98 16 19 C13.77585391 19.86979461 11.54727408 20.72083184 9.3125 21.5625 C8.68666016 21.80935547 8.06082031 22.05621094 7.41601562 22.31054688 C3.56649963 23.74151879 0.91021267 24.43259119 -3 23 C-4.70680947 21.37446717 -6.37660195 19.70884005 -8 18 C-10.96349281 17.01216906 -12.9712663 16.86589475 -16.0625 16.875 C-16.94035156 16.87242187 -17.81820312 16.86984375 -18.72265625 16.8671875 C-21.03198266 16.85166576 -21.03198266 16.85166576 -23 18 C-23.16677282 21.41656024 -23.16677282 21.41656024 -23 25 C-20.6988047 27.3011953 -19.16758072 27.75007491 -16.08984375 28.734375 C-15.09919922 29.06179687 -14.10855469 29.38921875 -13.08789062 29.7265625 C-11.01694614 30.39933058 -8.94406733 31.06617844 -6.86914062 31.7265625 C2.9691703 34.99965627 10.55152706 38.97596669 16 48 C18.23510516 54.70531547 17.91085179 61.937915 15 68.375 C10.89451094 75.55960586 5.18507674 78.93444409 -2.52490234 81.39135742 C-6.66337608 82.40903497 -10.69261854 82.48927679 -14.9375 82.4375 C-16.25572754 82.42505249 -16.25572754 82.42505249 -17.60058594 82.41235352 C-27.37880222 82.15727751 -34.13088408 79.62376296 -41.3046875 72.87109375 C-44.49936198 69.34517422 -47 65.90206888 -47 61 C-44.77332235 60.32506659 -42.54354023 59.66036956 -40.3125 59 C-39.07113281 58.62875 -37.82976563 58.2575 -36.55078125 57.875 C-29.65884067 56.17665601 -29.65884067 56.17665601 -25.8671875 58.05859375 C-25.20976563 58.51363281 -24.55234375 58.96867187 -23.875 59.4375 C-19.04383614 62.73660217 -14.85269121 63.61487417 -9 63 C-5.96175425 62.07979268 -5.96175425 62.07979268 -4 60 C-3.25 57 -3.25 57 -4 54 C-7.23476785 50.80497131 -10.78061629 50.13303975 -15.125 49.125 C-26.29409721 46.33441328 -36.58606529 41.89677298 -43 31.875 C-45.23798807 25.39507376 -45.28266674 17.00128151 -42.5625 10.6875 C-39.0279532 4.82562837 -33.55577684 -0.71353487 -26.8125 -2.5 C-17.86327558 -3.80313268 -8.11612944 -4.48433202 0 0 Z " fill="#FEF9FB" transform="translate(81,201)"/>
<path d="M0 0 C0.33 2.31 0.66 4.62 1 7 C2.3921875 6.0409375 2.3921875 6.0409375 3.8125 5.0625 C9.43460173 1.42466947 14.47808348 1.51383745 21 2 C26.98044027 3.7231777 31.96916849 7.26815431 36 12 C39.13582159 17.87732407 39.40311566 22.71908636 39.29296875 29.30859375 C39.28872391 30.27531509 39.28447906 31.24203644 39.28010559 32.23805237 C39.26340522 35.30482649 39.22576899 38.3709268 39.1875 41.4375 C39.172442 43.52538109 39.15875555 45.61327255 39.14648438 47.70117188 C39.11609061 52.80124536 39.05735251 57.89987457 39 63 C32.73 63 26.46 63 20 63 C19.95101562 60.30328125 19.90203125 57.6065625 19.8515625 54.828125 C19.79753718 52.2134857 19.74023579 49.59893729 19.68261719 46.984375 C19.64435809 45.16868879 19.60949983 43.35292759 19.578125 41.53710938 C19.5324077 38.92550877 19.47442464 36.31442312 19.4140625 33.703125 C19.40251129 32.89256653 19.39096008 32.08200806 19.37905884 31.24688721 C19.28870894 25.79941244 19.28870894 25.79941244 17 21 C13.54968739 19.27484369 9.77283696 19.50322076 6 20 C2.96784325 22.19831364 2.18345602 23.44963194 1 27 C0.84629652 29.72883073 0.74271735 32.43697142 0.68359375 35.16796875 C0.66281265 35.96278152 0.64203156 36.7575943 0.62062073 37.57649231 C0.55527913 40.11340763 0.49631192 42.65042573 0.4375 45.1875 C0.39430014 46.90821372 0.35068537 48.62891708 0.30664062 50.34960938 C0.19883323 54.56630247 0.0996458 58.78307451 0 63 C-5.94 63 -11.88 63 -18 63 C-18 44.19 -18 25.38 -18 6 C-3 0 -3 0 0 0 Z " fill="#FEF8FA" transform="translate(123,219)"/>
<path d="M0 0 C0 5.61 0 11.22 0 17 C3.96 17 7.92 17 12 17 C12 22.61 12 28.22 12 34 C8.04 34 4.08 34 0 34 C0.33 41.59 0.66 49.18 1 57 C5.31622777 59.42163702 5.31622777 59.42163702 12 60 C12 65.28 12 70.56 12 76 C-8.52589641 76.36653386 -8.52589641 76.36653386 -13.875 71.25 C-17.32137228 65.97907768 -18.25268775 61.54296501 -18.1953125 55.2890625 C-18.18886719 54.04511719 -18.18242187 52.80117188 -18.17578125 51.51953125 C-18.15902344 50.23433594 -18.14226562 48.94914062 -18.125 47.625 C-18.11597656 46.31660156 -18.10695313 45.00820312 -18.09765625 43.66015625 C-18.07415085 40.4399163 -18.04129087 37.22005293 -18 34 C-20.97 34 -23.94 34 -27 34 C-27 28.39 -27 22.78 -27 17 C-24.03 17 -21.06 17 -18 17 C-18 13.04 -18 9.08 -18 5 C-15.37605694 4.16320723 -12.75095616 3.33043058 -10.125 2.5 C-9.37863281 2.26152344 -8.63226563 2.02304688 -7.86328125 1.77734375 C-2.2265625 0 -2.2265625 0 0 0 Z " fill="#FEFCFD" transform="translate(434,206)"/>
<path d="M0 0 C0 19.47 0 38.94 0 59 C-5.94 59 -11.88 59 -18 59 C-18 41.18 -18 23.36 -18 5 C-3 0 -3 0 0 0 Z " fill="#FEF9FB" transform="translate(399,223)"/>
<path d="M0 0 C3.96978125 2.05840509 6.68328391 4.18500883 9 8 C9.83437727 13.00626365 10.36917899 18.63192313 7.7578125 23.1484375 C3.9637341 27.01801995 0.43907907 28.16525951 -4.8125 28.375 C-8.41346442 28.33820182 -10.64491778 28.06131785 -13.5 25.8125 C-17.4957019 21.31733536 -18.37147245 17.801373 -18.18359375 11.921875 C-17.77867998 7.68320324 -16.66057146 5.59451432 -13.5 2.75 C-9.00569352 -0.39601454 -5.40639318 -0.66442206 0 0 Z " fill="#EB1D7A" transform="translate(205,238)"/>
<path d="M0 0 C3.3783535 2.03326831 6.22346489 4.44692977 8 8 C9.02705184 19.24705946 9.02705184 19.24705946 6.25 23.625 C3.5404085 26.48512436 1.54995872 27.78003886 -2.3671875 28.3359375 C-8.09465733 28.42515043 -11.56447399 28.00279176 -16 24 C-19.19989714 20.26678667 -19.46228842 16.89249616 -19.2890625 12.14453125 C-18.63493021 7.29157683 -15.57025788 4.12397564 -12 1 C-7.90682172 -0.36439276 -4.26970603 -0.77052642 0 0 Z " fill="#EB1C7A" transform="translate(347,238)"/>
<path d="M0 0 C4.38299083 2.19149542 7.20074724 4.40190962 9 9 C9.54208681 13.56256401 9.55969228 17.5696753 7.875 21.875 C4.85190292 25.30117669 2.22526146 27.67904883 -2.4375 28.3515625 C-7.32940998 28.51171431 -11.22907808 28.42811084 -15 25 C-18.32395667 20.18599379 -18.7322576 15.66482615 -18 10 C-16.69056816 6.14445069 -15.39081791 4.35359716 -12.375 1.625 C-8.05982763 -0.45267558 -4.70619668 -0.83497038 0 0 Z " fill="#EB1B79" transform="translate(277,238)"/>
<path d="M0 0 C4.54054054 2.08108108 4.54054054 2.08108108 6 5 C7.14642125 14.01174174 7.14642125 14.01174174 4.94140625 17.8359375 C2.2476318 20.36180731 -0.47638323 21.33113763 -4.0625 21.5625 C-8.39281679 20.94388332 -9.99124225 20.09725063 -13 17 C-15.45665197 13.31502204 -15.70086491 10.28028214 -15 6 C-10.971116 -0.31191826 -7.07657294 -0.7088795 0 0 Z " fill="#FEF6F9" transform="translate(394,197)"/>
</svg>
