<?xml version="1.0" standalone="no"?>
<!DOCTYPE svg PUBLIC "-//W3C//DTD SVG 20010904//EN"
 "http://www.w3.org/TR/2001/REC-SVG-20010904/DTD/svg10.dtd">
<svg version="1.0" xmlns="http://www.w3.org/2000/svg"
 width="96.000000pt" height="96.000000pt" viewBox="0 0 96.000000 96.000000"
 preserveAspectRatio="xMidYMid meet">

<g transform="translate(0.000000,96.000000) scale(0.100000,-0.100000)"
fill="#000000" stroke="none">
<path d="M0 480 l0 -480 480 0 480 0 0 480 0 480 -480 0 -480 0 0 -480z m868
168 c3 -72 -12 -94 -24 -34 -8 48 -35 68 -94 74 l-50 5 2 -214 3 -214 33 -3
c17 -2 32 -7 32 -13 0 -5 -48 -9 -110 -9 -62 0 -110 4 -110 9 0 6 15 11 33 13
l32 3 3 214 2 214 -45 -5 c-56 -7 -72 -20 -86 -72 -10 -35 -13 -38 -20 -21 -4
11 -10 32 -13 47 -8 36 -57 50 -151 46 l-70 -3 -3 -92 -3 -93 56 0 c60 0 95
22 95 60 0 11 5 20 10 20 6 0 10 -37 10 -90 0 -53 -4 -90 -10 -90 -5 0 -10 9
-10 20 0 38 -35 60 -95 60 l-56 0 3 -102 3 -103 70 -3 c85 -3 133 17 155 65
23 49 31 40 28 -30 l-3 -62 -197 -3 c-121 -1 -198 1 -198 7 0 5 12 11 28 13
l27 3 0 215 0 215 -27 3 c-16 2 -28 8 -28 13 0 6 149 8 388 7 l387 -3 3 -67z"/>
</g>
</svg>
