<?xml version="1.0" standalone="no"?>
<!DOCTYPE svg PUBLIC "-//W3C//DTD SVG 20010904//EN"
 "http://www.w3.org/TR/2001/REC-SVG-20010904/DTD/svg10.dtd">
<svg version="1.0" xmlns="http://www.w3.org/2000/svg"
 width="96.000000pt" height="96.000000pt" viewBox="0 0 96.000000 96.000000"
 preserveAspectRatio="xMidYMid meet">

<g transform="translate(0.000000,96.000000) scale(0.100000,-0.100000)"
fill="#000000" stroke="none">
<path d="M466 745 c-6 -22 -12 -25 -51 -25 -43 0 -45 -1 -45 -30 0 -24 4 -30
21 -30 30 0 13 -19 -37 -42 -24 -10 -44 -22 -44 -26 0 -4 19 -15 42 -25 32
-13 39 -20 30 -29 -7 -7 -12 -25 -12 -40 0 -27 2 -28 45 -28 39 0 45 -3 51
-25 3 -14 9 -25 13 -25 4 0 13 11 19 25 10 21 19 25 52 25 38 0 40 2 40 29 0
20 -6 31 -17 33 -14 3 -10 9 17 26 19 12 43 22 53 22 30 0 19 16 -22 32 -39
15 -39 16 -34 62 l6 46 -46 0 c-40 0 -46 3 -51 25 -4 14 -10 25 -15 25 -5 0
-12 -11 -15 -25z m-5 -129 l-60 -60 -40 19 -41 18 37 17 c42 18 99 78 114 118
l10 25 19 -39 20 -39 -59 -59z m142 -5 c33 -17 35 -20 19 -26 -42 -13 -100
-65 -119 -106 l-21 -44 -18 38 -18 37 59 60 c33 33 60 60 60 60 0 0 18 -9 38
-19z"/>
<path d="M210 360 c0 -5 11 -10 25 -10 14 0 25 -4 25 -9 0 -5 -11 -23 -25 -39
-14 -17 -25 -33 -25 -36 0 -3 23 -6 50 -6 28 0 50 5 50 10 0 6 -14 10 -31 10
l-31 0 31 35 c17 20 31 40 31 45 0 6 -22 10 -50 10 -27 0 -50 -4 -50 -10z"/>
<path d="M330 320 c0 -45 3 -52 25 -60 26 -10 55 -4 67 14 4 6 8 30 8 54 0 30
-4 42 -14 42 -10 0 -16 -14 -18 -42 -2 -31 -8 -44 -20 -46 -15 -3 -18 4 -18
42 0 34 -4 46 -15 46 -11 0 -15 -12 -15 -50z"/>
<path d="M450 316 c0 -41 4 -56 14 -56 8 0 16 6 19 14 3 8 16 16 28 18 12 2
27 11 33 21 18 28 -4 52 -53 55 l-41 3 0 -55z m70 13 c0 -12 -29 -24 -37 -16
-3 4 -3 13 0 21 6 16 37 11 37 -5z"/>
<path d="M565 323 c1 -27 3 -51 4 -55 2 -12 81 -9 81 2 0 6 -13 10 -30 10 -16
0 -30 5 -30 10 0 6 11 10 25 10 31 0 33 17 3 22 -28 4 -30 21 -3 26 42 8 38
22 -7 22 l-45 0 2 -47z"/>
<path d="M670 315 l0 -55 40 0 c22 0 40 5 40 10 0 6 -11 10 -24 10 -14 0 -28
5 -31 10 -4 6 5 10 19 10 32 0 34 17 4 22 -32 4 -29 22 5 26 42 5 32 22 -13
22 l-40 0 0 -55z"/>
</g>
</svg>
